<svg xmlns="http://www.w3.org/2000/svg" xmlns:xlink="http://www.w3.org/1999/xlink" width="500" zoomAndPan="magnify" viewBox="0 0 375 262.499992" height="350" preserveAspectRatio="xMidYMid meet" version="1.0"><defs><filter x="0%" y="0%" width="100%" height="100%" id="id1"><feColorMatrix values="0 0 0 0 1 0 0 0 0 1 0 0 0 0 1 0 0 0 1 0" color-interpolation-filters="sRGB"/></filter><mask id="id2"><g filter="url(#id1)"><rect x="-37.5" width="450" fill="#000000" y="-26.249999" height="314.999991" fill-opacity="0.149"/></g></mask><clipPath id="id3"><path d="M 0.402344 1 L 170 1 L 170 170.839844 L 0.402344 170.839844 Z M 0.402344 1 " clip-rule="nonzero"/></clipPath><clipPath id="id4"><rect x="0" width="170" y="0" height="171"/></clipPath></defs><path fill="#2ab9e4" d="M 273.238281 128.828125 C 273.238281 130.300781 273.203125 131.773438 273.128906 133.246094 C 273.058594 134.71875 272.949219 136.1875 272.804688 137.65625 C 272.660156 139.121094 272.480469 140.582031 272.265625 142.042969 C 272.050781 143.5 271.800781 144.949219 271.511719 146.394531 C 271.226562 147.839844 270.90625 149.277344 270.546875 150.707031 C 270.191406 152.136719 269.800781 153.558594 269.371094 154.96875 C 268.945312 156.378906 268.484375 157.777344 267.992188 159.164062 C 267.496094 160.550781 266.96875 161.925781 266.40625 163.289062 C 265.84375 164.648438 265.246094 165.996094 264.621094 167.328125 C 263.992188 168.660156 263.332031 169.976562 262.636719 171.277344 C 261.945312 172.578125 261.222656 173.859375 260.464844 175.121094 C 259.710938 176.386719 258.925781 177.632812 258.109375 178.855469 C 257.292969 180.082031 256.449219 181.285156 255.574219 182.46875 C 254.695312 183.652344 253.792969 184.816406 252.863281 185.953125 C 251.929688 187.09375 250.96875 188.210938 249.984375 189.300781 C 248.996094 190.394531 247.984375 191.460938 246.945312 192.503906 C 245.90625 193.542969 244.84375 194.558594 243.753906 195.550781 C 242.667969 196.539062 241.554688 197.5 240.417969 198.4375 C 239.28125 199.371094 238.125 200.277344 236.945312 201.15625 C 235.765625 202.035156 234.5625 202.882812 233.34375 203.699219 C 232.121094 204.519531 230.878906 205.308594 229.621094 206.066406 C 228.359375 206.824219 227.082031 207.550781 225.785156 208.242188 C 224.492188 208.9375 223.179688 209.601562 221.851562 210.230469 C 220.523438 210.859375 219.179688 211.457031 217.824219 212.023438 C 216.464844 212.585938 215.09375 213.117188 213.710938 213.613281 C 212.328125 214.109375 210.933594 214.570312 209.527344 215 C 208.121094 215.425781 206.707031 215.820312 205.28125 216.179688 C 203.855469 216.535156 202.425781 216.859375 200.984375 217.144531 C 199.542969 217.433594 198.09375 217.683594 196.640625 217.902344 C 195.1875 218.117188 193.730469 218.296875 192.269531 218.441406 C 190.808594 218.585938 189.34375 218.695312 187.875 218.769531 C 186.40625 218.839844 184.9375 218.875 183.46875 218.875 C 182 218.875 180.53125 218.839844 179.066406 218.769531 C 177.597656 218.695312 176.132812 218.585938 174.671875 218.441406 C 173.210938 218.296875 171.75 218.117188 170.296875 217.902344 C 168.84375 217.683594 167.398438 217.433594 165.957031 217.144531 C 164.515625 216.859375 163.082031 216.535156 161.660156 216.179688 C 160.234375 215.820312 158.816406 215.425781 157.410156 215 C 156.007812 214.570312 154.613281 214.109375 153.226562 213.613281 C 151.84375 213.117188 150.476562 212.585938 149.117188 212.023438 C 147.761719 211.457031 146.417969 210.859375 145.089844 210.230469 C 143.761719 209.601562 142.449219 208.9375 141.152344 208.242188 C 139.859375 207.550781 138.582031 206.824219 137.320312 206.066406 C 136.058594 205.308594 134.820312 204.519531 133.597656 203.699219 C 132.375 202.882812 131.175781 202.035156 129.996094 201.15625 C 128.816406 200.277344 127.65625 199.371094 126.523438 198.4375 C 125.386719 197.5 124.273438 196.539062 123.1875 195.550781 C 122.097656 194.558594 121.035156 193.542969 119.996094 192.503906 C 118.957031 191.460938 117.941406 190.394531 116.957031 189.300781 C 115.96875 188.210938 115.011719 187.09375 114.078125 185.953125 C 113.148438 184.816406 112.242188 183.652344 111.367188 182.46875 C 110.492188 181.285156 109.648438 180.082031 108.832031 178.855469 C 108.015625 177.632812 107.230469 176.386719 106.472656 175.121094 C 105.71875 173.859375 104.996094 172.578125 104.300781 171.277344 C 103.609375 169.976562 102.949219 168.660156 102.320312 167.328125 C 101.691406 165.996094 101.097656 164.648438 100.535156 163.289062 C 99.972656 161.925781 99.445312 160.550781 98.949219 159.164062 C 98.453125 157.777344 97.992188 156.378906 97.566406 154.96875 C 97.140625 153.558594 96.75 152.136719 96.390625 150.707031 C 96.035156 149.277344 95.714844 147.839844 95.425781 146.394531 C 95.140625 144.949219 94.890625 143.5 94.675781 142.042969 C 94.457031 140.582031 94.277344 139.121094 94.132812 137.65625 C 93.992188 136.1875 93.882812 134.71875 93.808594 133.246094 C 93.738281 131.773438 93.703125 130.300781 93.703125 128.828125 C 93.703125 127.355469 93.738281 125.882812 93.808594 124.410156 C 93.882812 122.9375 93.992188 121.46875 94.132812 120.003906 C 94.277344 118.535156 94.457031 117.074219 94.675781 115.617188 C 94.890625 114.15625 95.140625 112.707031 95.425781 111.261719 C 95.714844 109.816406 96.035156 108.378906 96.390625 106.949219 C 96.75 105.519531 97.140625 104.097656 97.566406 102.6875 C 97.992188 101.277344 98.453125 99.878906 98.949219 98.492188 C 99.445312 97.105469 99.972656 95.730469 100.535156 94.367188 C 101.097656 93.007812 101.691406 91.660156 102.320312 90.328125 C 102.949219 88.996094 103.609375 87.679688 104.300781 86.378906 C 104.996094 85.082031 105.71875 83.800781 106.472656 82.535156 C 107.230469 81.269531 108.015625 80.027344 108.832031 78.800781 C 109.648438 77.574219 110.492188 76.371094 111.367188 75.1875 C 112.242188 74.003906 113.148438 72.84375 114.078125 71.703125 C 115.011719 70.5625 115.96875 69.449219 116.957031 68.355469 C 117.941406 67.265625 118.957031 66.199219 119.996094 65.15625 C 121.035156 64.113281 122.097656 63.097656 123.1875 62.109375 C 124.273438 61.117188 125.386719 60.15625 126.523438 59.222656 C 127.65625 58.285156 128.816406 57.378906 129.996094 56.5 C 131.175781 55.625 132.375 54.777344 133.597656 53.957031 C 134.820312 53.136719 136.058594 52.351562 137.320312 51.59375 C 138.582031 50.835938 139.859375 50.109375 141.152344 49.414062 C 142.449219 48.71875 143.761719 48.054688 145.089844 47.425781 C 146.417969 46.796875 147.761719 46.199219 149.117188 45.636719 C 150.476562 45.070312 151.84375 44.542969 153.226562 44.042969 C 154.613281 43.546875 156.007812 43.085938 157.410156 42.660156 C 158.816406 42.230469 160.234375 41.835938 161.660156 41.480469 C 163.082031 41.121094 164.515625 40.796875 165.957031 40.511719 C 167.398438 40.222656 168.84375 39.972656 170.296875 39.753906 C 171.75 39.539062 173.210938 39.359375 174.671875 39.214844 C 176.132812 39.070312 177.597656 38.960938 179.066406 38.890625 C 180.53125 38.816406 182 38.78125 183.46875 38.78125 C 184.9375 38.78125 186.40625 38.816406 187.875 38.890625 C 189.34375 38.960938 190.808594 39.070312 192.269531 39.214844 C 193.730469 39.359375 195.1875 39.539062 196.640625 39.753906 C 198.09375 39.972656 199.542969 40.222656 200.984375 40.511719 C 202.425781 40.796875 203.855469 41.121094 205.28125 41.480469 C 206.707031 41.835938 208.121094 42.230469 209.527344 42.660156 C 210.933594 43.085938 212.328125 43.546875 213.710938 44.042969 C 215.09375 44.542969 216.464844 45.070312 217.824219 45.636719 C 219.179688 46.199219 220.523438 46.796875 221.851562 47.425781 C 223.179688 48.054688 224.492188 48.71875 225.785156 49.414062 C 227.082031 50.109375 228.359375 50.835938 229.621094 51.59375 C 230.878906 52.351562 232.121094 53.136719 233.34375 53.957031 C 234.5625 54.777344 235.765625 55.625 236.945312 56.5 C 238.125 57.378906 239.28125 58.285156 240.417969 59.222656 C 241.554688 60.15625 242.667969 61.117188 243.753906 62.109375 C 244.84375 63.097656 245.90625 64.113281 246.945312 65.15625 C 247.984375 66.199219 248.996094 67.265625 249.984375 68.355469 C 250.96875 69.449219 251.929688 70.5625 252.863281 71.703125 C 253.792969 72.84375 254.695312 74.003906 255.574219 75.1875 C 256.449219 76.371094 257.292969 77.574219 258.109375 78.800781 C 258.925781 80.027344 259.710938 81.269531 260.464844 82.535156 C 261.222656 83.800781 261.945312 85.082031 262.636719 86.378906 C 263.332031 87.679688 263.992188 88.996094 264.621094 90.328125 C 265.246094 91.660156 265.84375 93.007812 266.40625 94.367188 C 266.96875 95.730469 267.496094 97.105469 267.992188 98.492188 C 268.484375 99.878906 268.945312 101.277344 269.371094 102.6875 C 269.800781 104.097656 270.191406 105.519531 270.546875 106.949219 C 270.90625 108.378906 271.226562 109.816406 271.511719 111.261719 C 271.800781 112.707031 272.050781 114.15625 272.265625 115.617188 C 272.480469 117.074219 272.660156 118.535156 272.804688 120.003906 C 272.949219 121.46875 273.058594 122.9375 273.128906 124.410156 C 273.203125 125.882812 273.238281 127.355469 273.238281 128.828125 Z M 273.238281 128.828125 " fill-opacity="1" fill-rule="nonzero"/><path fill="#7ed957" d="M 165.140625 40.664062 C 165.140625 40.664062 214.742188 51.878906 219.917969 66.285156 C 223.992188 60.046875 221.804688 47.378906 221.804688 47.378906 C 221.804688 47.378906 199.253906 33.738281 165.140625 40.664062 Z M 165.140625 40.664062 " fill-opacity="1" fill-rule="nonzero"/><path fill="#7ed957" d="M 219.914062 66.285156 C 219.914062 66.285156 235.378906 115.71875 178.414062 218.875 C 237.554688 220.878906 261.964844 175.300781 265.761719 164.859375 C 270.746094 107.675781 230.175781 68.46875 219.914062 66.285156 Z M 219.914062 66.285156 " fill-opacity="1" fill-rule="nonzero"/><path fill="#fdc74f" d="M 101.496094 165.574219 C 101.496094 165.574219 136.148438 91.011719 219.914062 66.285156 C 232.441406 127.144531 178.414062 218.871094 178.414062 218.871094 C 178.414062 218.871094 125.226562 218.871094 101.496094 165.574219 Z M 101.496094 165.574219 " fill-opacity="1" fill-rule="nonzero"/><path fill="#fdc74f" d="M 219.914062 66.285156 C 219.914062 66.285156 238.558594 63.046875 255.441406 75.003906 C 240.246094 54.566406 221.800781 47.378906 221.800781 47.378906 C 221.800781 47.378906 222.828125 59.25 219.917969 66.285156 Z M 219.914062 66.285156 " fill-opacity="1" fill-rule="nonzero"/><path fill="#eaeaea" d="M 235.097656 76.011719 C 234.757812 76.542969 234.328125 77.007812 233.800781 77.402344 C 233.277344 77.796875 232.664062 78.117188 231.972656 78.363281 C 231.277344 78.609375 230.515625 78.773438 229.679688 78.859375 C 228.847656 78.945312 227.957031 78.949219 227.011719 78.875 C 226.070312 78.796875 225.089844 78.640625 224.074219 78.402344 C 223.058594 78.167969 222.023438 77.855469 220.976562 77.46875 C 219.925781 77.082031 218.878906 76.625 217.835938 76.101562 C 216.792969 75.578125 215.773438 75 214.777344 74.359375 C 213.78125 73.71875 212.824219 73.035156 211.914062 72.304688 C 211.003906 71.574219 210.152344 70.8125 209.359375 70.019531 C 208.570312 69.226562 207.851562 68.417969 207.210938 67.59375 C 206.570312 66.765625 206.019531 65.941406 205.554688 65.113281 C 205.085938 64.285156 204.71875 63.476562 204.445312 62.679688 C 204.171875 61.882812 204.003906 61.117188 203.933594 60.382812 C 203.863281 59.648438 203.898438 58.960938 204.035156 58.316406 C 204.171875 57.671875 204.410156 57.082031 204.746094 56.554688 C 205.085938 56.023438 205.519531 55.558594 206.042969 55.164062 C 206.570312 54.769531 207.179688 54.449219 207.871094 54.203125 C 208.566406 53.957031 209.332031 53.792969 210.164062 53.707031 C 211 53.621094 211.886719 53.613281 212.832031 53.691406 C 213.773438 53.769531 214.753906 53.925781 215.769531 54.160156 C 216.789062 54.398438 217.820312 54.710938 218.871094 55.097656 C 219.921875 55.484375 220.964844 55.941406 222.011719 56.464844 C 223.054688 56.988281 224.074219 57.566406 225.070312 58.207031 C 226.066406 58.84375 227.019531 59.53125 227.929688 60.257812 C 228.84375 60.988281 229.691406 61.75 230.484375 62.542969 C 231.277344 63.335938 231.992188 64.148438 232.632812 64.972656 C 233.273438 65.800781 233.828125 66.625 234.292969 67.453125 C 234.757812 68.277344 235.125 69.089844 235.398438 69.886719 C 235.671875 70.683594 235.84375 71.445312 235.910156 72.179688 C 235.980469 72.914062 235.945312 73.605469 235.808594 74.25 C 235.671875 74.894531 235.433594 75.484375 235.097656 76.011719 Z M 235.097656 76.011719 " fill-opacity="1" fill-rule="nonzero"/><g mask="url(#id2)"><g transform="matrix(1, 0, 0, 1, 102, 39)"><g clip-path="url(#id4)"><g clip-path="url(#id3)"><path fill="#ffffff" d="M 169.765625 85.957031 C 169.765625 87.34375 169.730469 88.730469 169.664062 90.113281 C 169.59375 91.5 169.492188 92.878906 169.359375 94.261719 C 169.222656 95.640625 169.054688 97.015625 168.851562 98.386719 C 168.648438 99.757812 168.410156 101.121094 168.140625 102.480469 C 167.871094 103.839844 167.570312 105.195312 167.234375 106.539062 C 166.898438 107.882812 166.53125 109.21875 166.128906 110.542969 C 165.726562 111.871094 165.292969 113.1875 164.828125 114.492188 C 164.363281 115.796875 163.867188 117.089844 163.335938 118.371094 C 162.808594 119.652344 162.25 120.917969 161.65625 122.171875 C 161.066406 123.425781 160.445312 124.664062 159.792969 125.886719 C 159.144531 127.105469 158.460938 128.3125 157.753906 129.503906 C 157.042969 130.691406 156.300781 131.863281 155.535156 133.015625 C 154.765625 134.167969 153.972656 135.300781 153.148438 136.414062 C 152.324219 137.527344 151.476562 138.617188 150.597656 139.691406 C 149.722656 140.761719 148.820312 141.8125 147.890625 142.839844 C 146.964844 143.867188 146.011719 144.867188 145.035156 145.847656 C 144.058594 146.828125 143.054688 147.785156 142.03125 148.714844 C 141.007812 149.648438 139.960938 150.550781 138.894531 151.429688 C 137.828125 152.3125 136.738281 153.164062 135.628906 153.988281 C 134.515625 154.816406 133.386719 155.613281 132.238281 156.382812 C 131.089844 157.152344 129.921875 157.894531 128.738281 158.605469 C 127.550781 159.320312 126.351562 160.003906 125.132812 160.65625 C 123.914062 161.308594 122.679688 161.933594 121.429688 162.523438 C 120.179688 163.117188 118.917969 163.679688 117.640625 164.210938 C 116.363281 164.742188 115.074219 165.238281 113.773438 165.707031 C 112.472656 166.171875 111.160156 166.609375 109.839844 167.011719 C 108.515625 167.414062 107.1875 167.78125 105.84375 168.117188 C 104.503906 168.457031 103.15625 168.757812 101.800781 169.03125 C 100.445312 169.300781 99.085938 169.535156 97.71875 169.742188 C 96.351562 169.945312 94.980469 170.113281 93.605469 170.25 C 92.230469 170.386719 90.851562 170.488281 89.472656 170.554688 C 88.089844 170.625 86.710938 170.65625 85.328125 170.65625 C 83.945312 170.65625 82.566406 170.625 81.1875 170.554688 C 79.804688 170.488281 78.429688 170.386719 77.050781 170.25 C 75.675781 170.113281 74.304688 169.945312 72.941406 169.742188 C 71.574219 169.535156 70.210938 169.300781 68.855469 169.03125 C 67.5 168.757812 66.152344 168.457031 64.8125 168.117188 C 63.472656 167.78125 62.140625 167.414062 60.820312 167.011719 C 59.496094 166.609375 58.183594 166.171875 56.882812 165.707031 C 55.582031 165.238281 54.292969 164.742188 53.015625 164.210938 C 51.738281 163.679688 50.476562 163.117188 49.226562 162.523438 C 47.980469 161.933594 46.746094 161.308594 45.527344 160.65625 C 44.308594 160.003906 43.105469 159.320312 41.921875 158.605469 C 40.734375 157.894531 39.566406 157.152344 38.417969 156.382812 C 37.269531 155.613281 36.140625 154.816406 35.03125 153.988281 C 33.921875 153.164062 32.832031 152.3125 31.761719 151.429688 C 30.695312 150.550781 29.648438 149.648438 28.625 148.714844 C 27.601562 147.785156 26.601562 146.828125 25.625 145.847656 C 24.648438 144.867188 23.695312 143.867188 22.765625 142.839844 C 21.839844 141.8125 20.9375 140.761719 20.058594 139.691406 C 19.183594 138.617188 18.332031 137.527344 17.507812 136.414062 C 16.6875 135.300781 15.890625 134.167969 15.121094 133.015625 C 14.355469 131.863281 13.617188 130.691406 12.90625 129.503906 C 12.195312 128.3125 11.515625 127.105469 10.863281 125.886719 C 10.210938 124.664062 9.589844 123.425781 9 122.171875 C 8.410156 120.917969 7.847656 119.652344 7.320312 118.371094 C 6.792969 117.089844 6.292969 115.796875 5.828125 114.492188 C 5.363281 113.1875 4.929688 111.871094 4.527344 110.542969 C 4.128906 109.21875 3.757812 107.882812 3.421875 106.539062 C 3.085938 105.195312 2.785156 103.839844 2.515625 102.480469 C 2.246094 101.121094 2.007812 99.757812 1.808594 98.386719 C 1.605469 97.015625 1.433594 95.640625 1.300781 94.261719 C 1.164062 92.878906 1.0625 91.5 0.996094 90.113281 C 0.925781 88.730469 0.894531 87.34375 0.894531 85.957031 C 0.894531 84.570312 0.925781 83.1875 0.996094 81.800781 C 1.0625 80.417969 1.164062 79.035156 1.300781 77.65625 C 1.433594 76.277344 1.605469 74.902344 1.808594 73.53125 C 2.007812 72.160156 2.246094 70.792969 2.515625 69.433594 C 2.785156 68.074219 3.085938 66.722656 3.421875 65.378906 C 3.757812 64.03125 4.128906 62.699219 4.527344 61.371094 C 4.929688 60.042969 5.363281 58.730469 5.828125 57.421875 C 6.292969 56.117188 6.792969 54.824219 7.320312 53.542969 C 7.847656 52.265625 8.410156 50.996094 9 49.746094 C 9.589844 48.492188 10.210938 47.253906 10.863281 46.03125 C 11.515625 44.808594 12.195312 43.601562 12.90625 42.414062 C 13.617188 41.226562 14.355469 40.054688 15.121094 38.902344 C 15.890625 37.75 16.6875 36.617188 17.507812 35.503906 C 18.332031 34.390625 19.183594 33.296875 20.058594 32.226562 C 20.9375 31.152344 21.839844 30.105469 22.765625 29.078125 C 23.695312 28.050781 24.648438 27.046875 25.625 26.066406 C 26.601562 25.085938 27.601562 24.128906 28.625 23.199219 C 29.648438 22.269531 30.695312 21.363281 31.761719 20.484375 C 32.832031 19.605469 33.921875 18.753906 35.03125 17.925781 C 36.140625 17.101562 37.269531 16.304688 38.417969 15.53125 C 39.566406 14.761719 40.734375 14.023438 41.921875 13.308594 C 43.105469 12.597656 44.308594 11.914062 45.527344 11.261719 C 46.746094 10.605469 47.980469 9.984375 49.226562 9.390625 C 50.476562 8.796875 51.738281 8.238281 53.015625 7.707031 C 54.292969 7.175781 55.582031 6.675781 56.882812 6.210938 C 58.183594 5.742188 59.496094 5.308594 60.820312 4.90625 C 62.140625 4.503906 63.472656 4.132812 64.8125 3.796875 C 66.152344 3.460938 67.5 3.15625 68.855469 2.886719 C 70.210938 2.617188 71.574219 2.378906 72.941406 2.175781 C 74.304688 1.972656 75.675781 1.800781 77.050781 1.667969 C 78.429688 1.53125 79.804688 1.429688 81.1875 1.359375 C 82.566406 1.292969 83.945312 1.257812 85.328125 1.257812 C 86.710938 1.257812 88.089844 1.292969 89.472656 1.359375 C 90.851562 1.429688 92.230469 1.53125 93.605469 1.667969 C 94.980469 1.800781 96.351562 1.972656 97.71875 2.175781 C 99.085938 2.378906 100.445312 2.617188 101.800781 2.886719 C 103.15625 3.15625 104.503906 3.460938 105.84375 3.796875 C 107.1875 4.132812 108.515625 4.503906 109.839844 4.90625 C 111.160156 5.308594 112.472656 5.742188 113.773438 6.210938 C 115.074219 6.675781 116.363281 7.175781 117.640625 7.707031 C 118.917969 8.238281 120.179688 8.796875 121.429688 9.390625 C 122.679688 9.984375 123.914062 10.605469 125.132812 11.261719 C 126.351562 11.914062 127.550781 12.597656 128.738281 13.308594 C 129.921875 14.023438 131.089844 14.761719 132.238281 15.53125 C 133.386719 16.304688 134.515625 17.101562 135.628906 17.925781 C 136.738281 18.753906 137.828125 19.605469 138.894531 20.484375 C 139.960938 21.363281 141.007812 22.269531 142.03125 23.199219 C 143.054688 24.128906 144.058594 25.085938 145.035156 26.066406 C 146.011719 27.046875 146.964844 28.050781 147.890625 29.078125 C 148.820312 30.105469 149.722656 31.152344 150.597656 32.226562 C 151.476562 33.296875 152.324219 34.390625 153.148438 35.503906 C 153.972656 36.617188 154.765625 37.75 155.535156 38.902344 C 156.300781 40.054688 157.042969 41.226562 157.753906 42.414062 C 158.460938 43.601562 159.144531 44.808594 159.792969 46.03125 C 160.445312 47.253906 161.066406 48.492188 161.65625 49.746094 C 162.25 50.996094 162.808594 52.265625 163.335938 53.542969 C 163.867188 54.824219 164.363281 56.117188 164.828125 57.421875 C 165.292969 58.730469 165.726562 60.042969 166.128906 61.371094 C 166.53125 62.699219 166.898438 64.03125 167.234375 65.378906 C 167.570312 66.722656 167.871094 68.074219 168.140625 69.433594 C 168.410156 70.792969 168.648438 72.160156 168.851562 73.53125 C 169.054688 74.902344 169.222656 76.277344 169.359375 77.65625 C 169.492188 79.035156 169.59375 80.417969 169.664062 81.800781 C 169.730469 83.1875 169.765625 84.570312 169.765625 85.957031 Z M 169.765625 85.957031 " fill-opacity="1" fill-rule="nonzero"/></g></g></g></g></svg>