<svg xmlns="http://www.w3.org/2000/svg" xmlns:xlink="http://www.w3.org/1999/xlink" width="500" zoomAndPan="magnify" viewBox="0 0 375 262.499992" height="350" preserveAspectRatio="xMidYMid meet" version="1.0"><defs><g/><clipPath id="id1"><path d="M 164.3125 133 L 165 133 L 165 135 L 164.3125 135 Z M 164.3125 133 " clip-rule="nonzero"/></clipPath><clipPath id="id2"><path d="M 164.3125 136 L 165 136 L 165 138 L 164.3125 138 Z M 164.3125 136 " clip-rule="nonzero"/></clipPath><clipPath id="id3"><path d="M 164.3125 134 L 165 134 L 165 136 L 164.3125 136 Z M 164.3125 134 " clip-rule="nonzero"/></clipPath><clipPath id="id4"><path d="M 164.3125 135 L 165 135 L 165 137 L 164.3125 137 Z M 164.3125 135 " clip-rule="nonzero"/></clipPath><clipPath id="id5"><path d="M 164.3125 87.757812 L 229.042969 87.757812 L 229.042969 172.058594 L 164.3125 172.058594 Z M 164.3125 87.757812 " clip-rule="nonzero"/></clipPath></defs><path fill="#f2d8a7" d="M 187.4375 60.882812 C 149.332031 60.882812 118.441406 91.773438 118.441406 129.878906 C 118.441406 167.984375 149.332031 198.875 187.4375 198.875 C 225.542969 198.875 256.433594 167.984375 256.433594 129.878906 C 256.433594 91.773438 225.542969 60.882812 187.4375 60.882812 " fill-opacity="1" fill-rule="nonzero"/><g fill="#333333" fill-opacity="1"><g transform="translate(187.492176, 133.141262)"><g/></g></g><path fill="#fef7ea" d="M 190.554688 161.972656 C 190.570312 161.90625 190.574219 161.839844 190.574219 161.773438 C 190.527344 161.839844 190.484375 161.902344 190.445312 161.972656 C 190.144531 162.511719 189.542969 162.597656 189.113281 162.148438 C 188.800781 161.824219 188.550781 161.453125 188.371094 161.039062 C 187.976562 160.125 187.691406 159.179688 187.351562 158.25 C 186.15625 154.988281 185.652344 151.617188 185.71875 148.152344 C 185.730469 147.585938 185.742188 147.015625 185.746094 146.449219 C 185.75 145.789062 185.78125 145.128906 185.855469 144.472656 C 185.902344 144.046875 186.03125 143.632812 186.113281 143.21875 C 186.234375 142.636719 186.316406 142.050781 186.429688 141.46875 C 186.753906 139.816406 187.195312 138.1875 187.539062 136.535156 C 187.792969 135.300781 188 134.058594 188.066406 132.800781 C 188.171875 130.96875 187.820312 129.199219 187.261719 127.464844 C 187.226562 127.347656 187.171875 127.308594 187.046875 127.304688 C 186.527344 127.289062 186.003906 127.269531 185.484375 127.230469 C 185.238281 127.210938 184.976562 127.21875 184.765625 127.050781 C 184.679688 126.992188 184.601562 126.988281 184.492188 127.011719 C 183.808594 127.167969 183.113281 127.277344 182.40625 127.234375 C 181.6875 127.191406 181.015625 127.003906 180.460938 126.496094 C 180.339844 126.386719 180.300781 126.230469 180.210938 126.101562 C 180.117188 125.96875 180.265625 125.808594 180.445312 125.847656 C 181.292969 126.042969 182.152344 126.042969 183.015625 126.019531 C 183.648438 126.007812 184.277344 125.933594 184.90625 125.851562 C 185.570312 125.769531 186.230469 125.667969 186.886719 125.546875 C 187.042969 125.519531 187.199219 125.488281 187.351562 125.449219 C 187.664062 125.359375 187.992188 125.359375 188.308594 125.292969 C 188.433594 125.269531 188.492188 125.320312 188.472656 125.453125 C 188.699219 125.386719 188.839844 125.195312 189.03125 125.074219 C 189.640625 124.6875 190.15625 124.207031 190.605469 123.632812 C 191.667969 122.265625 192.472656 120.777344 192.929688 119.105469 C 193.261719 117.898438 193.480469 116.683594 193.21875 115.425781 C 193.136719 115.039062 193.113281 114.625 192.9375 114.273438 C 192.5 113.390625 191.929688 112.585938 191.246094 111.882812 C 190.757812 111.375 190.617188 110.820312 190.703125 110.15625 C 190.746094 109.800781 190.808594 109.445312 190.78125 109.082031 C 190.746094 108.480469 190.648438 107.890625 190.523438 107.304688 C 190.425781 106.851562 190.253906 106.410156 189.894531 106.109375 C 188.605469 105.019531 187.136719 104.566406 185.460938 104.976562 C 184.3125 105.253906 183.285156 105.761719 182.460938 106.628906 C 182.390625 106.707031 182.324219 106.789062 182.234375 106.882812 C 182.1875 106.5625 182.257812 106.292969 182.335938 106.023438 C 182.664062 104.945312 183.167969 103.945312 183.722656 102.972656 C 184.054688 102.390625 184.394531 101.804688 184.511719 101.125 C 184.566406 100.816406 184.464844 100.5625 184.230469 100.378906 C 183.453125 99.75 182.378906 99.953125 181.878906 100.808594 C 181.453125 101.527344 181.167969 102.3125 180.855469 103.082031 C 180.585938 103.746094 180.328125 104.417969 179.925781 105.015625 C 179.785156 105.226562 179.628906 105.417969 179.40625 105.554688 C 179.394531 105.53125 179.382812 105.523438 179.382812 105.511719 C 179.386719 105.46875 179.390625 105.429688 179.398438 105.382812 C 179.5 104.710938 179.492188 104.042969 179.308594 103.382812 C 178.851562 101.726562 177.273438 100.535156 175.503906 100.710938 C 175.300781 100.730469 175.109375 100.800781 174.917969 100.859375 C 174.101562 101.109375 173.363281 101.492188 172.808594 102.160156 C 172.660156 102.335938 172.457031 102.460938 172.351562 102.679688 C 172.332031 102.714844 172.277344 102.746094 172.234375 102.761719 C 172.082031 102.808594 171.929688 102.835938 171.777344 102.890625 C 171.457031 103.007812 171.109375 103.003906 170.804688 103.1875 C 170.070312 103.625 169.410156 104.136719 168.804688 104.730469 C 168.535156 104.992188 168.28125 105.261719 168.023438 105.53125 C 167.640625 106.054688 167.386719 106.640625 167.125 107.226562 C 166.835938 107.878906 166.582031 108.546875 166.382812 109.234375 C 166.070312 110.324219 165.914062 111.4375 165.894531 112.566406 C 165.859375 114.316406 166.039062 116.042969 166.492188 117.742188 C 166.785156 118.835938 167.125 119.90625 167.765625 120.859375 C 167.96875 121.15625 168.175781 121.453125 168.375 121.75 C 168.390625 121.769531 168.414062 121.785156 168.386719 121.804688 C 168.371094 121.796875 168.359375 121.789062 168.34375 121.777344 C 167.839844 121.457031 167.382812 121.066406 166.925781 120.6875 C 166.871094 120.753906 166.878906 120.839844 166.855469 120.914062 C 167.082031 121.050781 167.164062 121.28125 167.199219 121.511719 C 167.355469 122.566406 167.414062 123.628906 167.371094 124.695312 C 167.34375 125.421875 167.304688 126.148438 167.246094 126.875 C 167.183594 127.667969 167.105469 128.457031 167.007812 129.242188 C 166.90625 130.082031 166.800781 130.917969 166.699219 131.753906 C 166.597656 132.589844 166.484375 133.425781 166.382812 134.265625 C 166.289062 135.046875 166.199219 135.828125 166.109375 136.613281 C 166.066406 137.011719 166.03125 137.414062 165.984375 137.816406 C 165.976562 137.871094 165.96875 137.925781 165.992188 137.980469 C 166.136719 138.253906 166.113281 138.542969 166.105469 138.84375 C 166.066406 140.214844 166.21875 141.566406 166.421875 142.914062 C 166.859375 145.792969 167.640625 148.589844 168.472656 151.371094 C 169.261719 154.015625 170.042969 156.664062 170.859375 159.304688 C 171.109375 160.117188 171.296875 160.945312 171.296875 161.804688 C 171.296875 161.871094 171.289062 161.9375 171.285156 162.007812 C 171.304688 162.109375 171.296875 162.214844 171.324219 162.316406 C 171.660156 163.480469 171.71875 164.648438 171.367188 165.824219 C 171.242188 166.238281 171.242188 166.660156 171.359375 167.074219 C 171.542969 167.714844 171.589844 167.800781 172.234375 167.863281 C 172.261719 167.867188 172.28125 167.871094 172.308594 167.871094 C 173.253906 168 174.152344 167.859375 174.984375 167.386719 C 175.300781 167.207031 175.589844 167.003906 175.78125 166.679688 C 176.015625 166.277344 176.253906 165.878906 176.433594 165.449219 C 176.652344 164.933594 176.835938 164.40625 176.875 163.84375 C 176.734375 163.78125 176.710938 163.660156 176.703125 163.53125 C 176.664062 162.847656 176.636719 162.167969 176.585938 161.484375 C 176.546875 160.925781 176.519531 160.363281 176.476562 159.804688 C 176.410156 158.976562 176.351562 158.152344 176.269531 157.328125 C 176.1875 156.484375 176.101562 155.644531 175.992188 154.800781 C 175.804688 153.324219 175.628906 151.84375 175.335938 150.378906 C 175.296875 150.195312 175.257812 150.007812 175.21875 149.824219 C 175.191406 149.703125 175.125 149.609375 175.042969 149.523438 C 174.449219 148.894531 173.882812 148.238281 173.363281 147.539062 C 173.011719 147.066406 172.660156 146.585938 172.4375 146.03125 C 172.402344 145.949219 172.351562 145.941406 172.28125 145.933594 C 171.714844 145.867188 171.183594 145.695312 170.71875 145.355469 C 170.132812 144.929688 169.832031 144.34375 169.789062 143.625 C 169.789062 143.597656 169.789062 143.574219 169.789062 143.550781 C 169.769531 143.246094 169.765625 143.242188 169.511719 143.402344 C 169.0625 143.691406 168.582031 143.5625 168.328125 143.09375 C 168.125 142.714844 168.042969 142.304688 167.988281 141.886719 C 167.914062 141.328125 167.933594 140.761719 167.957031 140.199219 C 167.976562 139.628906 168.050781 139.058594 168.136719 138.492188 C 168.257812 137.699219 168.429688 136.914062 168.613281 136.128906 C 168.644531 135.984375 168.683594 135.832031 168.742188 135.691406 C 168.804688 135.523438 168.941406 135.457031 169.089844 135.503906 C 169.222656 135.550781 169.296875 135.714844 169.253906 135.871094 C 168.984375 136.851562 168.785156 137.847656 168.644531 138.855469 C 168.558594 139.453125 168.511719 140.050781 168.492188 140.652344 C 168.476562 141.207031 168.503906 141.75 168.617188 142.285156 C 168.652344 142.457031 168.703125 142.628906 168.789062 142.785156 C 168.914062 143.015625 169.027344 143.046875 169.25 142.914062 C 169.386719 142.832031 169.496094 142.714844 169.609375 142.605469 C 169.738281 142.476562 169.867188 142.347656 170.070312 142.445312 C 170.269531 142.535156 170.308594 142.710938 170.304688 142.902344 C 170.300781 143.207031 170.316406 143.511719 170.363281 143.8125 C 170.472656 144.519531 170.929688 144.929688 171.546875 145.1875 C 171.765625 145.28125 171.996094 145.351562 172.234375 145.375 C 172.355469 145.390625 172.476562 145.402344 172.59375 145.34375 C 172.75 145.265625 172.878906 145.34375 172.933594 145.472656 C 173.222656 146.167969 173.648438 146.773438 174.105469 147.355469 C 175.144531 148.667969 176.289062 149.886719 177.496094 151.039062 C 178.527344 152.023438 179.621094 152.933594 180.804688 153.734375 C 181.339844 154.101562 181.890625 154.445312 182.484375 154.707031 C 182.648438 154.777344 182.675781 154.730469 182.664062 154.578125 C 182.617188 153.933594 182.570312 153.289062 182.523438 152.644531 C 182.496094 152.265625 182.464844 151.890625 182.445312 151.511719 C 182.402344 150.917969 182.363281 150.324219 182.300781 149.726562 C 182.265625 149.351562 182.25 148.972656 182.21875 148.59375 C 182.175781 148.042969 182.125 147.492188 182.082031 146.9375 C 182.050781 146.585938 182.027344 146.230469 182.003906 145.878906 C 181.964844 145.351562 181.914062 144.824219 181.863281 144.296875 C 181.816406 143.8125 181.761719 143.328125 181.675781 142.847656 C 181.644531 142.675781 181.789062 142.5 181.964844 142.453125 C 182.105469 142.417969 182.28125 142.523438 182.351562 142.699219 C 182.441406 142.921875 182.449219 143.164062 182.476562 143.394531 C 182.546875 143.9375 182.605469 144.484375 182.65625 145.027344 C 182.695312 145.382812 182.710938 145.742188 182.738281 146.105469 C 182.78125 146.664062 182.835938 147.222656 182.878906 147.78125 C 182.90625 148.140625 182.929688 148.496094 182.960938 148.855469 C 183.003906 149.414062 183.054688 149.972656 183.097656 150.53125 C 183.128906 150.910156 183.152344 151.285156 183.179688 151.664062 C 183.226562 152.296875 183.277344 152.929688 183.324219 153.558594 C 183.351562 153.949219 183.375 154.339844 183.402344 154.726562 C 183.441406 155.316406 183.480469 155.90625 183.539062 156.496094 C 183.589844 156.945312 183.609375 157.394531 183.65625 157.839844 C 183.71875 158.378906 183.785156 158.917969 183.859375 159.453125 C 183.898438 159.726562 183.945312 159.996094 183.984375 160.265625 C 183.992188 160.304688 183.996094 160.355469 183.945312 160.375 C 184.023438 160.472656 184.042969 160.582031 184.0625 160.695312 C 184.15625 161.335938 184.25 161.980469 184.3125 162.625 C 184.375 163.316406 184.367188 163.996094 184.183594 164.664062 C 183.851562 165.875 183.59375 167.101562 183.273438 168.3125 C 183.109375 168.925781 183.074219 169.527344 183.308594 170.128906 C 183.40625 170.382812 183.53125 170.59375 183.816406 170.679688 C 184.222656 170.804688 184.628906 170.847656 185.046875 170.832031 C 185.738281 170.800781 186.363281 170.585938 186.9375 170.195312 C 187.308594 169.945312 187.679688 169.683594 187.992188 169.371094 C 188.355469 169.011719 188.660156 168.59375 188.992188 168.199219 C 188.996094 168.160156 188.992188 168.113281 189.003906 168.074219 C 189.535156 166.488281 189.917969 164.859375 190.277344 163.222656 C 190.375 162.816406 190.457031 162.394531 190.554688 161.972656 Z M 184.476562 109.761719 C 184.796875 109.660156 185.132812 109.710938 185.460938 109.71875 C 185.851562 109.730469 186.242188 109.769531 186.632812 109.777344 C 187.441406 109.800781 188.25 109.875 189.058594 109.863281 C 189.175781 109.863281 189.289062 109.886719 189.390625 109.945312 C 189.617188 110.023438 189.789062 110.21875 189.769531 110.425781 C 189.757812 110.625 189.683594 110.804688 189.464844 110.878906 C 189.359375 110.949219 189.242188 110.964844 189.117188 110.960938 C 188.074219 110.941406 187.035156 110.917969 185.992188 110.898438 C 185.976562 110.898438 185.957031 110.902344 185.9375 110.90625 C 185.914062 110.972656 185.972656 110.996094 186 111.023438 C 186.644531 111.703125 187.316406 112.359375 187.988281 113.015625 C 188.101562 113.128906 188.195312 113.253906 188.269531 113.398438 C 188.382812 113.617188 188.351562 113.847656 188.183594 114.019531 C 188.027344 114.175781 187.785156 114.21875 187.574219 114.113281 C 187.496094 114.070312 187.417969 114.015625 187.351562 113.953125 C 186.347656 113.046875 185.355469 112.128906 184.34375 111.226562 C 184.101562 111.015625 184.015625 110.742188 183.96875 110.457031 C 183.910156 110.148438 184.144531 109.863281 184.476562 109.761719 Z M 184.53125 115.105469 C 184.902344 114.96875 185.265625 115.003906 185.617188 115.136719 C 186.464844 115.453125 187.203125 115.917969 187.683594 116.722656 C 188.039062 117.328125 187.867188 117.886719 187.40625 118.1875 C 187.238281 118.296875 187.054688 118.34375 186.851562 118.34375 C 186.550781 118.351562 186.289062 118.238281 186.027344 118.125 C 185.464844 117.878906 184.933594 117.578125 184.46875 117.171875 C 184.148438 116.898438 183.933594 116.554688 183.855469 116.136719 C 183.78125 115.777344 184.140625 115.253906 184.53125 115.105469 Z M 173.757812 105.65625 C 174.105469 105.011719 174.542969 104.441406 175.15625 104.027344 C 175.355469 103.886719 175.488281 103.785156 175.429688 103.507812 C 175.386719 103.3125 175.476562 103.109375 175.585938 102.933594 C 175.640625 102.84375 175.722656 102.789062 175.832031 102.820312 C 175.949219 102.851562 175.894531 102.949219 175.894531 103.019531 C 175.898438 103.386719 176 103.707031 176.277344 103.960938 C 176.585938 104.246094 176.660156 104.597656 176.570312 104.988281 C 176.367188 105.90625 175.949219 106.710938 175.230469 107.335938 C 175.011719 107.527344 174.757812 107.667969 174.453125 107.664062 C 173.894531 107.652344 173.464844 107.191406 173.46875 106.554688 C 173.472656 106.269531 173.589844 105.957031 173.757812 105.65625 Z M 173.570312 108.90625 C 174.441406 108.316406 175.398438 107.894531 176.363281 107.492188 C 176.441406 107.460938 176.523438 107.417969 176.609375 107.433594 C 176.746094 107.460938 176.835938 107.542969 176.847656 107.679688 C 176.863281 107.828125 176.773438 107.917969 176.644531 107.976562 C 176.347656 108.101562 176.042969 108.222656 175.75 108.347656 C 174.972656 108.691406 174.21875 109.089844 173.53125 109.59375 C 172.832031 110.113281 172.203125 110.707031 171.765625 111.476562 C 171.613281 111.753906 171.492188 112.046875 171.480469 112.375 C 171.472656 112.523438 171.425781 112.667969 171.234375 112.6875 C 171.015625 112.707031 170.929688 112.605469 170.933594 112.253906 C 170.96875 111.902344 171.109375 111.503906 171.332031 111.132812 C 171.890625 110.207031 172.679688 109.503906 173.570312 108.90625 Z M 172.082031 116.523438 C 172.207031 116.476562 172.296875 116.550781 172.367188 116.640625 C 172.425781 116.710938 172.414062 116.804688 172.429688 116.886719 C 172.542969 117.609375 172.890625 118.214844 173.378906 118.753906 C 173.992188 119.425781 174.75 119.847656 175.644531 120.015625 C 175.875 120.0625 176.113281 120.082031 176.351562 120.109375 C 176.527344 120.128906 176.636719 120.230469 176.628906 120.378906 C 176.625 120.542969 176.488281 120.65625 176.316406 120.648438 C 174.96875 120.578125 173.816406 120.078125 172.910156 119.058594 C 172.402344 118.484375 172.054688 117.828125 171.894531 117.074219 C 171.882812 117.007812 171.886719 116.941406 171.882812 116.871094 C 171.859375 116.703125 171.921875 116.578125 172.082031 116.523438 Z M 168.417969 121.816406 C 168.410156 121.808594 168.40625 121.804688 168.398438 121.800781 C 168.40625 121.800781 168.414062 121.796875 168.417969 121.792969 C 168.417969 121.804688 168.417969 121.808594 168.417969 121.816406 Z M 169.84375 110.1875 C 169.191406 110.050781 168.480469 109.800781 168.054688 109.066406 C 167.679688 108.425781 168.210938 107.605469 168.945312 107.582031 C 169.015625 107.578125 169.09375 107.59375 169.164062 107.617188 C 169.71875 107.808594 170.269531 108.019531 170.703125 108.433594 C 171.019531 108.738281 171.167969 109.109375 171.011719 109.542969 C 170.863281 109.949219 170.449219 110.191406 169.84375 110.1875 Z M 176.878906 125.652344 C 176.507812 125.683594 176.136719 125.710938 175.769531 125.738281 C 174.273438 125.734375 172.945312 125.238281 171.75 124.359375 C 171.199219 123.957031 170.695312 123.511719 170.316406 122.933594 C 170.296875 122.898438 170.269531 122.863281 170.253906 122.824219 C 170.167969 122.644531 170.203125 122.484375 170.34375 122.410156 C 170.476562 122.335938 170.617188 122.390625 170.722656 122.554688 C 171.214844 123.3125 171.90625 123.847656 172.660156 124.3125 C 173.277344 124.691406 173.949219 124.960938 174.667969 125.078125 C 175.179688 125.160156 175.695312 125.214844 176.21875 125.148438 C 176.421875 125.117188 176.628906 125.144531 176.839844 125.109375 C 176.996094 125.085938 177.132812 125.210938 177.144531 125.359375 C 177.160156 125.507812 177.046875 125.644531 176.878906 125.652344 Z M 179.488281 113.070312 C 178.949219 113.523438 178.328125 113.824219 177.664062 114.039062 C 177.1875 114.1875 176.714844 114.328125 176.207031 114.304688 C 176.125 114.300781 176.105469 114.351562 176.074219 114.40625 C 175.90625 114.730469 175.742188 115.054688 175.601562 115.398438 C 175.480469 115.675781 175.558594 115.9375 175.632812 116.21875 C 175.765625 116.707031 176.0625 117.046875 176.480469 117.300781 C 177.074219 117.660156 177.71875 117.714844 178.390625 117.582031 C 178.503906 117.558594 178.609375 117.496094 178.707031 117.4375 C 178.867188 117.347656 178.988281 117.375 179.066406 117.511719 C 179.144531 117.644531 179.113281 117.773438 178.960938 117.871094 C 178.730469 118.019531 178.46875 118.082031 178.199219 118.109375 C 178.097656 118.121094 177.996094 118.121094 177.90625 118.128906 C 177.308594 118.125 176.765625 118.003906 176.265625 117.6875 C 176.019531 117.527344 175.734375 117.464844 175.445312 117.460938 C 174.53125 117.460938 173.652344 116.832031 173.363281 115.964844 C 173.316406 115.824219 173.238281 115.726562 173.089844 115.671875 C 172.449219 115.425781 172.132812 114.941406 172.113281 114.265625 C 172.105469 114.035156 172.042969 113.796875 172.144531 113.5625 C 172.179688 113.480469 172.21875 113.398438 172.277344 113.324219 C 172.382812 113.199219 172.503906 113.15625 172.648438 113.242188 C 172.800781 113.328125 172.835938 113.457031 172.769531 113.617188 C 172.625 113.9375 172.621094 114.269531 172.71875 114.601562 C 172.855469 115.042969 173.226562 115.183594 173.632812 115.25 C 174.09375 115.328125 174.558594 115.28125 175.015625 115.164062 C 175.089844 115.144531 175.125 115.109375 175.160156 115.042969 C 175.289062 114.761719 175.429688 114.484375 175.566406 114.203125 C 175.597656 114.144531 175.636719 114.097656 175.574219 114.023438 C 175.179688 113.582031 175.003906 113.046875 174.917969 112.476562 C 174.824219 111.820312 174.828125 111.171875 174.992188 110.523438 C 175.050781 110.300781 175.148438 110.101562 175.257812 109.902344 C 175.386719 109.671875 175.605469 109.59375 175.855469 109.5625 C 176.46875 109.480469 177.058594 109.550781 177.636719 109.777344 C 178.410156 110.085938 179.125 110.476562 179.636719 111.15625 C 179.820312 111.394531 180 111.640625 180.019531 111.953125 C 180.054688 112.429688 179.828125 112.785156 179.488281 113.070312 Z M 179.488281 113.070312 " fill-opacity="1" fill-rule="nonzero"/><path fill="#fef7ea" d="M 219.742188 124.015625 C 219.5625 122.429688 219.203125 120.894531 218.542969 119.4375 C 218.007812 118.25 217.3125 117.160156 216.378906 116.246094 C 215.417969 115.292969 214.292969 114.589844 213.015625 114.128906 C 211.527344 113.59375 209.992188 113.441406 208.421875 113.667969 C 208.070312 113.71875 207.726562 113.808594 207.378906 113.867188 C 207.351562 113.890625 207.320312 113.917969 207.304688 113.945312 C 207.011719 114.46875 206.757812 115 206.71875 115.609375 C 206.695312 115.960938 206.851562 116.238281 207.171875 116.324219 C 207.625 116.441406 207.898438 116.742188 208.109375 117.132812 C 208.160156 117.226562 208.230469 117.292969 208.320312 117.351562 C 208.933594 117.730469 209.617188 117.898438 210.308594 118.042969 C 210.742188 118.136719 210.976562 118.433594 211.164062 118.773438 C 211.316406 119.050781 211.46875 119.316406 211.71875 119.519531 C 212.109375 119.851562 212.539062 120.140625 212.96875 120.421875 C 213.242188 120.597656 213.480469 120.8125 213.695312 121.058594 C 213.75 121.121094 213.78125 121.183594 213.785156 121.269531 C 213.8125 121.777344 213.945312 122.257812 214.128906 122.730469 C 214.488281 123.660156 215.003906 124.503906 215.554688 125.332031 C 216.246094 126.371094 216.949219 127.398438 217.65625 128.429688 C 217.75 128.5625 217.785156 128.667969 217.699219 128.820312 C 217.617188 128.96875 217.574219 129.140625 217.53125 129.304688 C 217.261719 130.378906 217.265625 131.476562 217.285156 132.574219 C 217.3125 134.058594 217.464844 135.542969 217.382812 137.027344 C 217.328125 137.933594 217.230469 138.832031 217 139.714844 C 216.957031 139.875 216.890625 140.03125 216.894531 140.203125 C 216.863281 140.191406 216.859375 140.222656 216.847656 140.238281 C 216.898438 140.273438 216.894531 140.234375 216.898438 140.203125 C 216.921875 140.167969 216.949219 140.136719 216.964844 140.097656 C 217.253906 139.496094 217.511719 138.882812 217.757812 138.265625 C 218.207031 137.113281 218.476562 135.902344 218.835938 134.722656 C 219.542969 132.40625 219.773438 130.011719 219.863281 127.605469 C 219.917969 126.410156 219.878906 125.214844 219.742188 124.015625 Z M 219.742188 124.015625 " fill-opacity="1" fill-rule="nonzero"/><path fill="#fef7ea" d="M 195.675781 107.003906 C 195.925781 106.796875 196.230469 106.671875 196.515625 106.523438 C 197.628906 105.941406 198.773438 105.433594 199.9375 104.960938 C 200.167969 104.867188 200.40625 104.785156 200.660156 104.785156 C 201.234375 104.78125 201.628906 105.28125 201.5 105.835938 C 201.40625 106.222656 201.175781 106.535156 200.980469 106.859375 C 200.171875 108.207031 199.351562 109.546875 198.53125 110.886719 C 198.507812 110.929688 198.480469 110.964844 198.480469 111.015625 C 198.589844 110.945312 198.707031 110.875 198.816406 110.789062 C 199.632812 110.164062 200.332031 109.417969 200.984375 108.636719 C 201.246094 108.324219 201.496094 108 201.753906 107.679688 C 201.964844 107.386719 202.128906 107.066406 202.296875 106.746094 C 202.785156 105.8125 203.265625 104.878906 203.75 103.949219 C 203.792969 103.867188 203.84375 103.796875 203.683594 103.796875 C 202.957031 103.800781 202.230469 103.695312 201.503906 103.800781 C 201.160156 103.882812 200.816406 103.960938 200.472656 104.042969 C 199.496094 104.269531 198.589844 104.675781 197.707031 105.136719 C 197.007812 105.503906 196.308594 105.867188 195.613281 106.230469 C 195.542969 106.265625 195.429688 106.28125 195.472656 106.40625 C 195.535156 106.605469 195.558594 106.820312 195.675781 107.003906 Z M 195.675781 107.003906 " fill-opacity="1" fill-rule="nonzero"/><path fill="#fef7ea" d="M 175.261719 97.957031 C 175.394531 97.914062 175.535156 97.894531 175.667969 97.867188 C 175.738281 97.359375 175.878906 96.867188 176.007812 96.371094 C 176.226562 95.515625 176.445312 94.667969 176.78125 93.851562 C 176.824219 93.746094 176.882812 93.644531 176.925781 93.535156 C 177.035156 93.277344 177.203125 93.121094 177.503906 93.167969 C 177.761719 93.210938 177.902344 93.390625 177.992188 93.617188 C 178.105469 93.902344 178.160156 94.203125 178.214844 94.503906 C 178.347656 95.265625 178.460938 96.027344 178.515625 96.800781 C 178.535156 97.085938 178.589844 97.367188 178.582031 97.65625 C 178.625 97.667969 178.664062 97.683594 178.707031 97.683594 C 178.976562 97.722656 178.996094 97.707031 179.019531 97.445312 C 179.03125 97.332031 179.050781 97.214844 179.046875 97.101562 C 179.015625 96.070312 178.90625 95.042969 178.785156 94.019531 C 178.660156 92.964844 178.492188 91.917969 178.320312 90.867188 C 178.265625 90.535156 178.25 90.191406 178.140625 89.871094 C 177.644531 90.890625 177.125 91.902344 176.703125 92.957031 C 176.699219 92.984375 176.695312 93.015625 176.683594 93.042969 C 176.488281 93.59375 176.289062 94.148438 176.101562 94.699219 C 175.75 95.738281 175.4375 96.789062 175.15625 97.847656 C 175.125 97.960938 175.121094 98.003906 175.261719 97.957031 Z M 175.261719 97.957031 " fill-opacity="1" fill-rule="nonzero"/><path fill="#fef7ea" d="M 204.878906 158.65625 C 204.800781 158.621094 204.753906 158.6875 204.703125 158.714844 C 203.414062 159.527344 202.027344 160.121094 200.570312 160.554688 C 199.195312 161.222656 197.800781 161.847656 196.296875 162.167969 C 195.613281 162.308594 194.929688 162.4375 194.226562 162.402344 C 194.222656 162.402344 194.214844 162.402344 194.210938 162.402344 C 193.800781 162.25 193.589844 162.539062 193.375 162.789062 C 192.53125 163.785156 191.816406 164.871094 191.136719 165.984375 C 190.769531 166.578125 190.457031 167.203125 190.136719 167.820312 C 190.007812 168.066406 189.800781 168.277344 189.695312 168.542969 C 189.714844 168.652344 189.679688 168.757812 189.667969 168.867188 C 189.644531 169.097656 189.671875 169.320312 189.742188 169.539062 C 189.761719 169.597656 189.785156 169.652344 189.84375 169.683594 C 190.261719 169.917969 190.71875 170.054688 191.179688 170.03125 C 192.042969 169.980469 192.882812 169.75 193.703125 169.472656 C 194.988281 169.03125 196.136719 168.332031 197.21875 167.519531 C 198.472656 166.582031 199.628906 165.53125 200.667969 164.359375 C 201.867188 163.011719 203.132812 161.714844 204.0625 160.148438 C 204.351562 159.660156 204.664062 159.183594 204.878906 158.65625 C 204.882812 158.65625 204.882812 158.65625 204.878906 158.65625 C 204.898438 158.644531 204.917969 158.632812 204.933594 158.621094 C 204.90625 158.617188 204.875 158.617188 204.878906 158.65625 Z M 204.878906 158.65625 " fill-opacity="1" fill-rule="nonzero"/><path fill="#fef7ea" d="M 191.796875 154.925781 C 191.710938 155.636719 191.636719 156.347656 191.710938 157.070312 C 191.726562 157.199219 191.742188 157.328125 191.800781 157.441406 C 191.855469 157.546875 191.941406 157.609375 192.070312 157.597656 C 192.1875 157.585938 192.257812 157.515625 192.292969 157.40625 C 192.316406 157.34375 192.328125 157.273438 192.335938 157.207031 C 192.351562 156.996094 192.363281 156.78125 192.375 156.570312 C 192.433594 155.628906 192.527344 154.691406 192.679688 153.761719 C 192.992188 151.855469 193.382812 149.960938 193.84375 148.089844 C 193.886719 147.90625 193.964844 147.761719 194.09375 147.632812 C 194.5625 147.148438 195.089844 146.726562 195.648438 146.347656 C 197.074219 145.371094 198.578125 144.523438 200.101562 143.703125 C 201.125 143.152344 202.003906 142.457031 202.695312 141.527344 C 203.328125 140.679688 203.738281 139.75 203.777344 138.679688 C 203.832031 137.769531 203.371094 137.203125 202.582031 136.855469 C 202.339844 136.746094 202.109375 136.832031 201.890625 136.921875 C 201.019531 137.261719 200.292969 137.816406 199.652344 138.492188 C 199.378906 138.785156 199.199219 139.144531 198.898438 139.414062 C 198.074219 140.152344 197.308594 140.941406 196.601562 141.789062 C 195.675781 142.898438 194.863281 144.078125 194.238281 145.386719 C 193.613281 146.691406 193.234375 148.078125 192.871094 149.464844 C 192.390625 151.253906 192.015625 153.078125 191.796875 154.925781 Z M 191.796875 154.925781 " fill-opacity="1" fill-rule="nonzero"/><path fill="#fec7ab" d="M 200.660156 104.78125 C 200.40625 104.78125 200.167969 104.867188 199.9375 104.957031 C 198.773438 105.429688 197.628906 105.9375 196.515625 106.519531 C 196.230469 106.667969 195.929688 106.792969 195.675781 107 C 195.75 107.320312 195.914062 107.605469 196.054688 107.890625 C 196.582031 108.921875 197.257812 109.863281 197.824219 110.875 C 198.058594 111.285156 198.066406 111.28125 198.476562 111.015625 C 198.476562 110.960938 198.503906 110.921875 198.527344 110.882812 C 199.34375 109.539062 200.167969 108.203125 200.976562 106.859375 C 201.175781 106.53125 201.40625 106.214844 201.496094 105.832031 C 201.628906 105.277344 201.234375 104.777344 200.660156 104.78125 Z M 200.660156 104.78125 " fill-opacity="1" fill-rule="nonzero"/><path fill="#fec7ab" d="M 178.214844 94.503906 C 178.164062 94.203125 178.105469 93.902344 177.992188 93.617188 C 177.902344 93.394531 177.761719 93.214844 177.503906 93.167969 C 177.203125 93.121094 177.035156 93.277344 176.925781 93.535156 C 176.882812 93.644531 176.824219 93.746094 176.78125 93.851562 C 176.449219 94.667969 176.226562 95.515625 176.007812 96.371094 C 175.882812 96.867188 175.738281 97.359375 175.667969 97.867188 C 176.113281 97.800781 176.558594 97.734375 177.003906 97.6875 C 177.527344 97.636719 178.054688 97.660156 178.578125 97.652344 C 178.585938 97.367188 178.53125 97.082031 178.511719 96.796875 C 178.460938 96.027344 178.347656 95.265625 178.214844 94.503906 Z M 178.214844 94.503906 " fill-opacity="1" fill-rule="nonzero"/><path fill="#fec7ab" d="M 185.617188 115.136719 C 185.265625 115.003906 184.902344 114.96875 184.53125 115.105469 C 184.140625 115.253906 183.78125 115.777344 183.851562 116.136719 C 183.929688 116.554688 184.148438 116.898438 184.464844 117.171875 C 184.929688 117.578125 185.464844 117.878906 186.023438 118.125 C 186.285156 118.238281 186.550781 118.351562 186.847656 118.34375 C 187.050781 118.34375 187.234375 118.296875 187.402344 118.1875 C 187.863281 117.886719 188.035156 117.328125 187.679688 116.722656 C 187.203125 115.917969 186.464844 115.457031 185.617188 115.136719 Z M 185.617188 115.136719 " fill-opacity="1" fill-rule="nonzero"/><path fill="#fec7ab" d="M 169.160156 107.613281 C 169.09375 107.59375 169.015625 107.578125 168.941406 107.578125 C 168.207031 107.605469 167.679688 108.421875 168.050781 109.0625 C 168.476562 109.796875 169.1875 110.046875 169.839844 110.183594 C 170.445312 110.1875 170.855469 109.945312 171.003906 109.539062 C 171.160156 109.105469 171.011719 108.734375 170.695312 108.429688 C 170.265625 108.015625 169.71875 107.808594 169.160156 107.613281 Z M 169.160156 107.613281 " fill-opacity="1" fill-rule="nonzero"/><g clip-path="url(#id1)"><path fill="#dac3b0" d="M 164.347656 134.105469 C 164.347656 133.859375 164.34375 133.617188 164.34375 133.371094 C 164.335938 133.371094 164.324219 133.371094 164.3125 133.371094 C 164.3125 133.617188 164.3125 133.859375 164.3125 134.105469 L 164.332031 134.109375 Z M 164.347656 134.105469 " fill-opacity="1" fill-rule="nonzero"/></g><g clip-path="url(#id2)"><path fill="#dac3b0" d="M 164.3125 136.351562 C 164.3125 136.597656 164.3125 136.839844 164.3125 137.085938 C 164.324219 137.085938 164.335938 137.085938 164.34375 137.085938 C 164.34375 136.839844 164.347656 136.597656 164.347656 136.351562 C 164.339844 136.347656 164.324219 136.347656 164.3125 136.351562 Z M 164.3125 136.351562 " fill-opacity="1" fill-rule="nonzero"/></g><path fill="#dac3b0" d="M 183.859375 159.464844 C 183.789062 158.929688 183.71875 158.390625 183.65625 157.851562 C 183.609375 157.402344 183.585938 156.953125 183.539062 156.507812 C 183.476562 155.917969 183.4375 155.332031 183.402344 154.738281 C 183.375 154.351562 183.351562 153.960938 183.324219 153.570312 C 183.28125 152.9375 183.226562 152.308594 183.179688 151.675781 C 183.152344 151.296875 183.128906 150.921875 183.097656 150.542969 C 183.054688 149.984375 183.003906 149.425781 182.960938 148.867188 C 182.929688 148.507812 182.90625 148.152344 182.878906 147.789062 C 182.835938 147.230469 182.78125 146.671875 182.738281 146.113281 C 182.710938 145.753906 182.695312 145.398438 182.65625 145.039062 C 182.601562 144.496094 182.546875 143.945312 182.476562 143.40625 C 182.449219 143.171875 182.441406 142.933594 182.351562 142.707031 C 182.28125 142.535156 182.105469 142.433594 181.964844 142.464844 C 181.789062 142.511719 181.644531 142.6875 181.675781 142.859375 C 181.761719 143.339844 181.816406 143.820312 181.863281 144.308594 C 181.914062 144.832031 181.964844 145.363281 182.003906 145.890625 C 182.027344 146.242188 182.050781 146.597656 182.082031 146.949219 C 182.125 147.5 182.175781 148.050781 182.21875 148.605469 C 182.25 148.984375 182.265625 149.359375 182.300781 149.738281 C 182.359375 150.332031 182.402344 150.929688 182.445312 151.523438 C 182.46875 151.902344 182.496094 152.277344 182.523438 152.65625 C 182.570312 153.300781 182.613281 153.945312 182.664062 154.589844 C 182.675781 154.738281 182.648438 154.789062 182.484375 154.71875 C 181.890625 154.457031 181.339844 154.109375 180.804688 153.746094 C 179.621094 152.945312 178.527344 152.035156 177.496094 151.050781 C 176.292969 149.894531 175.144531 148.679688 174.105469 147.367188 C 173.648438 146.785156 173.21875 146.175781 172.933594 145.484375 C 172.882812 145.355469 172.753906 145.277344 172.59375 145.355469 C 172.476562 145.414062 172.355469 145.402344 172.234375 145.386719 C 171.996094 145.363281 171.765625 145.292969 171.546875 145.199219 C 170.925781 144.9375 170.472656 144.527344 170.363281 143.824219 C 170.316406 143.523438 170.296875 143.21875 170.304688 142.914062 C 170.308594 142.722656 170.269531 142.546875 170.070312 142.453125 C 169.867188 142.363281 169.738281 142.492188 169.609375 142.617188 C 169.496094 142.730469 169.386719 142.84375 169.25 142.925781 C 169.027344 143.058594 168.910156 143.023438 168.789062 142.796875 C 168.703125 142.636719 168.648438 142.46875 168.617188 142.296875 C 168.503906 141.757812 168.480469 141.214844 168.492188 140.664062 C 168.511719 140.0625 168.558594 139.464844 168.644531 138.863281 C 168.785156 137.859375 168.984375 136.863281 169.253906 135.878906 C 169.300781 135.726562 169.222656 135.5625 169.089844 135.515625 C 168.941406 135.46875 168.804688 135.535156 168.742188 135.703125 C 168.6875 135.847656 168.648438 135.996094 168.613281 136.140625 C 168.429688 136.925781 168.257812 137.707031 168.136719 138.503906 C 168.050781 139.070312 167.976562 139.640625 167.957031 140.210938 C 167.9375 140.773438 167.914062 141.332031 167.988281 141.894531 C 168.042969 142.316406 168.121094 142.726562 168.328125 143.105469 C 168.582031 143.574219 169.0625 143.699219 169.511719 143.414062 C 169.765625 143.253906 169.769531 143.253906 169.789062 143.5625 C 169.789062 143.585938 169.789062 143.609375 169.789062 143.632812 C 169.832031 144.355469 170.136719 144.9375 170.71875 145.363281 C 171.183594 145.703125 171.710938 145.878906 172.28125 145.945312 C 172.351562 145.953125 172.40625 145.960938 172.4375 146.042969 C 172.660156 146.597656 173.011719 147.078125 173.363281 147.550781 C 173.882812 148.246094 174.449219 148.902344 175.042969 149.535156 C 175.125 149.621094 175.191406 149.714844 175.21875 149.832031 C 175.257812 150.015625 175.296875 150.199219 175.335938 150.386719 C 175.625 151.851562 175.800781 153.332031 175.992188 154.8125 C 176.101562 155.652344 176.183594 156.492188 176.269531 157.335938 C 176.351562 158.160156 176.414062 158.988281 176.476562 159.8125 C 176.519531 160.371094 176.546875 160.933594 176.585938 161.492188 C 176.636719 162.171875 176.664062 162.855469 176.703125 163.539062 C 176.710938 163.667969 176.734375 163.792969 176.875 163.855469 C 176.890625 163.761719 176.921875 163.664062 176.921875 163.566406 C 176.925781 163.035156 177.292969 162.765625 177.695312 162.582031 C 178.207031 162.351562 178.753906 162.207031 179.285156 162.011719 C 180.042969 161.734375 180.800781 161.453125 181.53125 161.113281 C 182.171875 160.808594 182.773438 160.445312 183.355469 160.058594 C 183.453125 159.996094 183.515625 160 183.59375 160.074219 C 183.707031 160.183594 183.824219 160.292969 183.941406 160.398438 C 183.992188 160.375 183.988281 160.328125 183.980469 160.289062 C 183.945312 160.003906 183.898438 159.738281 183.859375 159.464844 Z M 183.859375 159.464844 " fill-opacity="1" fill-rule="nonzero"/><path fill="#dac3b0" d="M 200.871094 159.875 C 200.773438 159.746094 200.636719 159.707031 200.480469 159.769531 C 200.402344 159.804688 200.328125 159.84375 200.25 159.882812 C 199.492188 160.308594 198.707031 160.6875 197.882812 160.96875 C 196.546875 161.421875 195.195312 161.835938 193.75 161.632812 C 193.132812 161.546875 192.613281 161.308594 192.273438 160.765625 C 191.953125 160.265625 191.917969 159.683594 191.808594 159.125 C 191.789062 159.03125 191.761719 159.007812 191.699219 159.003906 C 191.546875 158.980469 191.398438 158.96875 191.242188 158.953125 C 191.144531 158.941406 191.101562 158.980469 191.082031 159.082031 C 190.925781 159.980469 190.792969 160.882812 190.570312 161.769531 C 190.570312 161.835938 190.566406 161.902344 190.550781 161.96875 C 190.457031 162.390625 190.371094 162.8125 190.277344 163.234375 C 189.917969 164.867188 189.535156 166.5 189.003906 168.085938 C 188.988281 168.125 188.996094 168.171875 188.992188 168.210938 C 189.015625 168.195312 189.050781 168.183594 189.066406 168.164062 C 189.15625 168.054688 189.238281 168.078125 189.324219 168.171875 C 189.445312 168.296875 189.570312 168.417969 189.695312 168.539062 C 189.800781 168.273438 190.007812 168.0625 190.136719 167.816406 C 190.457031 167.199219 190.769531 166.574219 191.136719 165.980469 C 191.8125 164.867188 192.53125 163.785156 193.375 162.785156 C 193.589844 162.535156 193.800781 162.246094 194.210938 162.398438 C 194.214844 162.402344 194.222656 162.398438 194.226562 162.398438 C 194.929688 162.433594 195.613281 162.308594 196.296875 162.164062 C 197.804688 161.84375 199.195312 161.214844 200.570312 160.554688 C 200.621094 160.421875 200.773438 160.414062 200.855469 160.308594 C 200.964844 160.171875 200.980469 160.027344 200.871094 159.875 Z M 192.902344 162.269531 C 192.011719 163.316406 191.25 164.449219 190.539062 165.625 C 190.515625 165.664062 190.5 165.714844 190.414062 165.722656 C 190.828125 164.105469 191.175781 162.480469 191.503906 160.851562 C 191.71875 161.238281 191.96875 161.59375 192.339844 161.839844 C 192.503906 161.945312 192.671875 162.046875 192.855469 162.113281 C 192.941406 162.148438 192.976562 162.179688 192.902344 162.269531 Z M 192.902344 162.269531 " fill-opacity="1" fill-rule="nonzero"/><path fill="#dac3b0" d="M 188.3125 125.289062 C 187.996094 125.355469 187.667969 125.355469 187.355469 125.445312 C 187.203125 125.488281 187.046875 125.519531 186.890625 125.542969 C 186.234375 125.664062 185.570312 125.765625 184.910156 125.847656 C 184.28125 125.929688 183.652344 126 183.019531 126.019531 C 182.15625 126.039062 181.296875 126.039062 180.449219 125.84375 C 180.269531 125.804688 180.121094 125.964844 180.214844 126.097656 C 180.308594 126.226562 180.347656 126.382812 180.464844 126.492188 C 181.015625 127 181.691406 127.1875 182.410156 127.230469 C 183.117188 127.273438 183.808594 127.164062 184.496094 127.007812 C 184.601562 126.980469 184.683594 126.988281 184.769531 127.046875 C 184.742188 126.917969 184.851562 126.929688 184.917969 126.914062 C 185.53125 126.761719 186.128906 126.585938 186.714844 126.355469 C 187.332031 126.113281 187.957031 125.882812 188.476562 125.449219 C 188.496094 125.320312 188.4375 125.265625 188.3125 125.289062 Z M 188.3125 125.289062 " fill-opacity="1" fill-rule="nonzero"/><path fill="#dac3b0" d="M 171.234375 112.6875 C 171.425781 112.671875 171.472656 112.527344 171.480469 112.378906 C 171.496094 112.050781 171.613281 111.757812 171.765625 111.480469 C 172.203125 110.707031 172.832031 110.117188 173.53125 109.597656 C 174.21875 109.09375 174.972656 108.695312 175.75 108.351562 C 176.046875 108.222656 176.347656 108.101562 176.644531 107.976562 C 176.777344 107.921875 176.863281 107.835938 176.847656 107.683594 C 176.832031 107.546875 176.742188 107.464844 176.609375 107.4375 C 176.523438 107.417969 176.441406 107.464844 176.363281 107.496094 C 175.398438 107.898438 174.441406 108.320312 173.570312 108.90625 C 172.679688 109.507812 171.890625 110.207031 171.328125 111.136719 C 171.109375 111.511719 170.964844 111.910156 170.929688 112.261719 C 170.929688 112.609375 171.011719 112.707031 171.234375 112.6875 Z M 171.234375 112.6875 " fill-opacity="1" fill-rule="nonzero"/><path fill="#dac3b0" d="M 170.316406 122.933594 C 170.695312 123.511719 171.199219 123.957031 171.75 124.359375 C 172.945312 125.238281 174.269531 125.734375 175.769531 125.738281 C 176.140625 125.710938 176.511719 125.6875 176.878906 125.652344 C 177.046875 125.640625 177.160156 125.507812 177.144531 125.359375 C 177.128906 125.210938 176.996094 125.085938 176.839844 125.109375 C 176.632812 125.148438 176.421875 125.121094 176.21875 125.148438 C 175.695312 125.214844 175.179688 125.160156 174.667969 125.078125 C 173.949219 124.960938 173.28125 124.691406 172.660156 124.3125 C 171.90625 123.847656 171.214844 123.308594 170.722656 122.554688 C 170.613281 122.386719 170.472656 122.335938 170.34375 122.410156 C 170.203125 122.484375 170.167969 122.648438 170.253906 122.824219 C 170.269531 122.863281 170.296875 122.898438 170.316406 122.933594 Z M 170.316406 122.933594 " fill-opacity="1" fill-rule="nonzero"/><path fill="#dac3b0" d="M 175.644531 120.015625 C 174.75 119.847656 173.992188 119.425781 173.378906 118.753906 C 172.890625 118.21875 172.542969 117.613281 172.429688 116.886719 C 172.417969 116.804688 172.425781 116.710938 172.367188 116.640625 C 172.292969 116.550781 172.207031 116.476562 172.082031 116.523438 C 171.917969 116.578125 171.859375 116.703125 171.882812 116.871094 C 171.886719 116.9375 171.886719 117.007812 171.894531 117.074219 C 172.054688 117.828125 172.402344 118.484375 172.910156 119.058594 C 173.816406 120.074219 174.96875 120.574219 176.316406 120.648438 C 176.488281 120.65625 176.621094 120.542969 176.628906 120.378906 C 176.632812 120.230469 176.523438 120.128906 176.351562 120.109375 C 176.113281 120.078125 175.878906 120.0625 175.644531 120.015625 Z M 175.644531 120.015625 " fill-opacity="1" fill-rule="nonzero"/><g clip-path="url(#id3)"><path fill="#877671" d="M 164.347656 134.910156 C 164.347656 134.640625 164.347656 134.375 164.347656 134.105469 L 164.332031 134.109375 L 164.3125 134.109375 C 164.3125 134.414062 164.3125 134.722656 164.3125 135.027344 C 164.351562 135 164.347656 134.953125 164.347656 134.910156 Z M 164.347656 134.910156 " fill-opacity="1" fill-rule="nonzero"/></g><g clip-path="url(#id4)"><path fill="#877671" d="M 164.3125 135.433594 C 164.3125 135.738281 164.3125 136.046875 164.3125 136.351562 C 164.324219 136.347656 164.339844 136.347656 164.347656 136.355469 C 164.347656 136.242188 164.359375 136.125 164.347656 136.007812 C 164.335938 135.816406 164.394531 135.621094 164.3125 135.433594 Z M 164.3125 135.433594 " fill-opacity="1" fill-rule="nonzero"/></g><path fill="#877671" d="M 216.902344 140.210938 C 216.90625 140.210938 216.90625 140.210938 216.902344 140.210938 C 216.90625 140.207031 216.90625 140.207031 216.90625 140.207031 C 216.90625 140.207031 216.902344 140.210938 216.902344 140.210938 Z M 216.902344 140.210938 " fill-opacity="1" fill-rule="nonzero"/><path fill="#877671" d="M 227.835938 128.820312 C 227.792969 128.140625 227.777344 127.457031 227.726562 126.773438 C 227.664062 125.890625 227.460938 125.027344 227.28125 124.167969 C 227.125 123.414062 226.894531 122.671875 226.636719 121.9375 C 226.214844 120.75 225.664062 119.632812 224.988281 118.574219 C 224.597656 117.964844 224.179688 117.378906 223.714844 116.828125 C 223.46875 116.539062 223.238281 116.230469 222.964844 115.976562 C 222.59375 115.636719 222.207031 115.304688 221.808594 114.988281 C 221.03125 114.367188 220.203125 113.816406 219.320312 113.347656 C 218.367188 112.839844 217.375 112.4375 216.335938 112.132812 C 215.726562 111.957031 215.105469 111.832031 214.480469 111.738281 C 213.949219 111.65625 213.410156 111.65625 212.875 111.625 C 212.785156 111.617188 212.691406 111.582031 212.601562 111.597656 C 212.175781 111.664062 211.742188 111.667969 211.3125 111.730469 C 210.769531 111.808594 210.230469 111.917969 209.714844 112.113281 C 209.144531 112.324219 208.628906 112.640625 208.136719 113 C 207.820312 113.230469 207.539062 113.496094 207.378906 113.867188 C 207.730469 113.8125 208.070312 113.722656 208.425781 113.671875 C 209.996094 113.441406 211.53125 113.597656 213.019531 114.132812 C 214.296875 114.59375 215.421875 115.300781 216.382812 116.25 C 217.316406 117.167969 218.011719 118.253906 218.546875 119.441406 C 219.207031 120.898438 219.566406 122.433594 219.746094 124.019531 C 219.882812 125.214844 219.917969 126.410156 219.875 127.613281 C 219.785156 130.019531 219.550781 132.410156 218.847656 134.730469 C 218.488281 135.910156 218.222656 137.121094 217.765625 138.273438 C 217.523438 138.894531 217.257812 139.507812 216.976562 140.105469 C 216.957031 140.144531 216.933594 140.175781 216.910156 140.210938 C 216.910156 140.242188 216.910156 140.28125 216.859375 140.246094 C 216.800781 140.328125 216.777344 140.421875 216.753906 140.519531 C 216.660156 140.90625 216.484375 141.265625 216.3125 141.621094 C 215.832031 142.632812 215.167969 143.5 214.332031 144.25 C 213.769531 144.757812 213.160156 145.152344 212.414062 145.308594 C 212.292969 145.335938 212.273438 145.394531 212.273438 145.5 C 212.277344 145.78125 212.292969 146.0625 212.304688 146.34375 C 212.320312 146.8125 212.300781 147.285156 212.285156 147.753906 C 212.269531 148.132812 212.234375 148.511719 212.230469 148.890625 C 212.230469 149.027344 212.203125 149.167969 212.199219 149.308594 C 212.191406 149.503906 212.070312 149.625 211.910156 149.621094 C 211.75 149.621094 211.652344 149.496094 211.652344 149.289062 C 211.652344 149.214844 211.644531 149.144531 211.65625 149.070312 C 211.730469 148.46875 211.71875 147.863281 211.753906 147.261719 C 211.777344 146.851562 211.734375 146.429688 211.734375 146.015625 C 211.734375 145.207031 211.570312 144.433594 211.402344 143.652344 C 211.203125 142.734375 210.902344 141.839844 210.527344 140.972656 C 210.042969 139.84375 209.480469 138.75 208.820312 137.714844 C 208.324219 136.949219 207.761719 136.234375 207.195312 135.523438 C 206.652344 134.839844 206.097656 134.167969 205.539062 133.5 C 205.101562 132.972656 204.652344 132.460938 204.207031 131.941406 C 203.71875 131.371094 203.234375 130.796875 202.742188 130.230469 C 202.273438 129.683594 201.789062 129.148438 201.320312 128.605469 C 200.703125 127.886719 200.085938 127.171875 199.476562 126.449219 C 198.964844 125.839844 198.457031 125.230469 197.949219 124.621094 C 197.414062 123.976562 196.882812 123.335938 196.34375 122.695312 C 196.113281 122.421875 196.109375 122.429688 195.925781 122.753906 C 195.363281 123.742188 194.6875 124.644531 193.90625 125.464844 C 193.453125 125.941406 192.960938 126.367188 192.429688 126.757812 C 192.167969 126.949219 191.898438 127.128906 191.609375 127.273438 C 191.445312 127.355469 191.296875 127.320312 191.21875 127.195312 C 191.132812 127.054688 191.167969 126.921875 191.332031 126.808594 C 191.371094 126.777344 191.410156 126.753906 191.457031 126.730469 C 192.257812 126.265625 192.945312 125.675781 193.578125 125.003906 C 194.1875 124.355469 194.730469 123.660156 195.195312 122.90625 C 195.417969 122.546875 195.660156 122.195312 195.800781 121.800781 C 196.160156 120.828125 196.46875 119.84375 196.789062 118.863281 C 197.222656 117.53125 197.652344 116.203125 198.09375 114.875 C 198.195312 114.5625 198.28125 114.246094 198.441406 113.949219 C 199.195312 112.558594 199.9375 111.160156 200.683594 109.765625 C 201.023438 109.128906 201.367188 108.492188 201.707031 107.855469 C 201.734375 107.800781 201.765625 107.75 201.746094 107.683594 C 201.488281 108.003906 201.238281 108.328125 200.976562 108.640625 C 200.324219 109.425781 199.628906 110.171875 198.808594 110.792969 C 198.699219 110.875 198.585938 110.945312 198.472656 111.019531 C 198.0625 111.289062 198.054688 111.292969 197.820312 110.882812 C 197.253906 109.875 196.578125 108.929688 196.050781 107.898438 C 195.90625 107.609375 195.742188 107.328125 195.675781 107.007812 C 195.554688 106.824219 195.53125 106.609375 195.460938 106.410156 C 195.421875 106.289062 195.53125 106.269531 195.601562 106.234375 C 196.300781 105.867188 196.996094 105.503906 197.695312 105.140625 C 198.578125 104.679688 199.488281 104.273438 200.460938 104.046875 C 200.804688 103.964844 201.148438 103.882812 201.492188 103.804688 C 201.367188 103.726562 201.222656 103.734375 201.089844 103.730469 C 200.445312 103.703125 199.796875 103.722656 199.144531 103.699219 C 198.207031 103.660156 197.265625 103.695312 196.328125 103.652344 C 195.863281 103.636719 195.398438 103.667969 194.933594 103.609375 C 194.785156 103.589844 194.613281 103.625 194.484375 103.503906 C 194.164062 103.203125 193.84375 102.902344 193.515625 102.609375 C 193.277344 102.394531 193.042969 102.164062 192.785156 101.96875 C 191.886719 101.289062 190.964844 100.632812 190.011719 100.03125 C 189.285156 99.570312 188.542969 99.144531 187.75 98.816406 C 186.589844 98.335938 185.390625 97.957031 184.164062 97.664062 C 183.519531 97.507812 182.867188 97.375 182.226562 97.195312 C 182.085938 97.15625 181.996094 97.089844 181.9375 96.953125 C 181.765625 96.546875 181.585938 96.132812 181.398438 95.734375 C 180.953125 94.78125 180.507812 93.832031 180.046875 92.886719 C 179.519531 91.792969 178.984375 90.710938 178.449219 89.625 C 178.425781 89.574219 178.421875 89.5 178.332031 89.488281 C 178.265625 89.617188 178.199219 89.746094 178.132812 89.871094 C 178.246094 90.195312 178.261719 90.539062 178.3125 90.871094 C 178.484375 91.917969 178.652344 92.96875 178.777344 94.023438 C 178.898438 95.046875 179.007812 96.070312 179.039062 97.105469 C 179.042969 97.21875 179.027344 97.335938 179.011719 97.449219 C 178.984375 97.710938 178.964844 97.726562 178.699219 97.6875 C 178.660156 97.683594 178.617188 97.671875 178.574219 97.660156 C 178.050781 97.671875 177.527344 97.648438 177 97.695312 C 176.550781 97.742188 176.109375 97.808594 175.667969 97.871094 C 175.53125 97.902344 175.390625 97.921875 175.257812 97.964844 C 175.117188 98.007812 175.121094 97.964844 175.152344 97.851562 C 175.429688 96.789062 175.742188 95.738281 176.097656 94.703125 C 176.285156 94.148438 176.484375 93.597656 176.679688 93.046875 C 176.691406 93.019531 176.691406 92.988281 176.699219 92.960938 C 176.613281 92.972656 176.609375 93.050781 176.578125 93.105469 C 176.40625 93.46875 176.234375 93.839844 176.0625 94.203125 C 175.535156 95.316406 174.996094 96.429688 174.46875 97.546875 C 174.394531 97.703125 174.292969 97.855469 174.304688 98.046875 C 174.308594 98.109375 174.269531 98.160156 174.222656 98.207031 C 173.894531 98.550781 173.550781 98.882812 173.191406 99.195312 C 172.710938 99.617188 172.230469 100.042969 171.78125 100.507812 C 171.355469 100.953125 170.941406 101.40625 170.527344 101.867188 C 170.246094 102.179688 169.960938 102.492188 169.707031 102.828125 C 169.214844 103.464844 168.765625 104.132812 168.371094 104.839844 C 168.246094 105.066406 168.054688 105.261719 168.019531 105.535156 C 168.28125 105.265625 168.535156 104.996094 168.800781 104.734375 C 169.40625 104.140625 170.070312 103.625 170.800781 103.191406 C 171.109375 103.007812 171.453125 103.011719 171.773438 102.894531 C 171.921875 102.84375 172.078125 102.8125 172.230469 102.765625 C 172.273438 102.75 172.332031 102.71875 172.347656 102.683594 C 172.457031 102.46875 172.65625 102.34375 172.804688 102.164062 C 173.359375 101.496094 174.097656 101.113281 174.914062 100.863281 C 175.105469 100.804688 175.296875 100.730469 175.5 100.714844 C 177.269531 100.535156 178.84375 101.730469 179.304688 103.386719 C 179.488281 104.046875 179.496094 104.710938 179.394531 105.386719 C 179.386719 105.433594 179.382812 105.472656 179.378906 105.515625 C 179.378906 105.523438 179.390625 105.535156 179.402344 105.558594 C 179.625 105.421875 179.78125 105.230469 179.921875 105.019531 C 180.324219 104.421875 180.578125 103.753906 180.851562 103.085938 C 181.164062 102.316406 181.453125 101.53125 181.875 100.8125 C 182.375 99.957031 183.449219 99.753906 184.226562 100.382812 C 184.457031 100.566406 184.558594 100.820312 184.507812 101.128906 C 184.390625 101.808594 184.050781 102.390625 183.71875 102.976562 C 183.164062 103.953125 182.664062 104.949219 182.335938 106.027344 C 182.253906 106.296875 182.183594 106.566406 182.230469 106.886719 C 182.316406 106.792969 182.386719 106.710938 182.460938 106.632812 C 183.28125 105.765625 184.308594 105.257812 185.457031 104.980469 C 187.132812 104.570312 188.601562 105.023438 189.890625 106.113281 C 190.25 106.414062 190.421875 106.855469 190.519531 107.308594 C 190.644531 107.894531 190.742188 108.484375 190.777344 109.085938 C 190.800781 109.449219 190.742188 109.804688 190.699219 110.160156 C 190.613281 110.824219 190.753906 111.382812 191.242188 111.882812 C 191.925781 112.589844 192.496094 113.394531 192.933594 114.277344 C 193.109375 114.628906 193.132812 115.042969 193.214844 115.429688 C 193.476562 116.683594 193.257812 117.898438 192.925781 119.109375 C 192.464844 120.78125 191.664062 122.269531 190.601562 123.636719 C 190.152344 124.210938 189.640625 124.691406 189.027344 125.078125 C 188.835938 125.199219 188.695312 125.390625 188.46875 125.457031 C 187.949219 125.890625 187.324219 126.125 186.707031 126.363281 C 186.121094 126.589844 185.523438 126.769531 184.914062 126.921875 C 184.851562 126.9375 184.734375 126.925781 184.761719 127.054688 C 184.976562 127.21875 185.234375 127.214844 185.480469 127.234375 C 186 127.273438 186.519531 127.292969 187.042969 127.308594 C 187.167969 127.3125 187.222656 127.347656 187.257812 127.46875 C 187.816406 129.203125 188.167969 130.972656 188.0625 132.804688 C 187.996094 134.066406 187.789062 135.304688 187.535156 136.539062 C 187.195312 138.1875 186.75 139.816406 186.425781 141.472656 C 186.3125 142.054688 186.234375 142.640625 186.109375 143.222656 C 186.027344 143.640625 185.898438 144.050781 185.851562 144.476562 C 185.777344 145.132812 185.746094 145.792969 185.742188 146.453125 C 185.738281 147.023438 185.726562 147.59375 185.714844 148.15625 C 185.644531 151.625 186.148438 154.992188 187.347656 158.253906 C 187.6875 159.183594 187.972656 160.128906 188.367188 161.042969 C 188.546875 161.457031 188.796875 161.824219 189.109375 162.152344 C 189.539062 162.601562 190.140625 162.519531 190.441406 161.976562 C 190.476562 161.90625 190.523438 161.84375 190.570312 161.777344 C 190.792969 160.890625 190.921875 159.988281 191.082031 159.089844 C 191.101562 158.988281 191.144531 158.949219 191.242188 158.960938 C 191.394531 158.976562 191.546875 158.988281 191.699219 159.007812 C 191.761719 159.015625 191.789062 159.039062 191.808594 159.128906 C 191.917969 159.6875 191.957031 160.273438 192.273438 160.773438 C 192.617188 161.316406 193.136719 161.550781 193.75 161.640625 C 195.199219 161.84375 196.546875 161.425781 197.882812 160.976562 C 198.707031 160.695312 199.492188 160.316406 200.25 159.890625 C 200.324219 159.851562 200.398438 159.8125 200.480469 159.777344 C 200.636719 159.714844 200.773438 159.75 200.871094 159.882812 C 200.980469 160.035156 200.964844 160.179688 200.855469 160.320312 C 200.773438 160.425781 200.621094 160.429688 200.570312 160.5625 C 202.03125 160.128906 203.414062 159.535156 204.703125 158.722656 C 204.753906 158.691406 204.800781 158.628906 204.878906 158.664062 C 204.875 158.625 204.90625 158.621094 204.933594 158.628906 C 204.980469 158.59375 204.980469 158.546875 204.992188 158.5 C 205.105469 158.136719 205.34375 157.867188 205.671875 157.71875 C 206.34375 157.410156 207.019531 157.113281 207.664062 156.746094 C 208.117188 156.484375 208.558594 156.199219 208.921875 155.835938 C 209.257812 155.496094 209.550781 155.105469 209.828125 154.710938 C 210.464844 153.792969 210.902344 152.78125 211.21875 151.714844 C 211.3125 151.410156 211.503906 151.210938 211.726562 151.019531 C 211.773438 150.984375 211.824219 150.949219 211.890625 150.945312 C 212.128906 150.941406 212.363281 150.917969 212.601562 150.914062 C 213.082031 150.910156 213.550781 150.871094 214.027344 150.804688 C 215.183594 150.640625 216.28125 150.265625 217.335938 149.773438 C 218.324219 149.316406 219.238281 148.75 220.089844 148.066406 C 220.820312 147.476562 221.480469 146.824219 222.070312 146.097656 C 222.710938 145.304688 223.28125 144.472656 223.808594 143.605469 C 224.523438 142.433594 225.140625 141.210938 225.644531 139.9375 C 226.144531 138.671875 226.613281 137.390625 226.933594 136.0625 C 227.058594 135.542969 227.210938 135.027344 227.304688 134.503906 C 227.355469 134.207031 227.398438 133.914062 227.453125 133.621094 C 227.601562 132.839844 227.785156 132.054688 227.785156 131.253906 C 227.785156 130.441406 227.890625 129.632812 227.835938 128.820312 Z M 203.777344 138.679688 C 203.738281 139.75 203.328125 140.679688 202.695312 141.527344 C 202.003906 142.457031 201.125 143.15625 200.101562 143.703125 C 198.582031 144.523438 197.078125 145.371094 195.648438 146.347656 C 195.089844 146.726562 194.5625 147.148438 194.09375 147.632812 C 193.964844 147.765625 193.886719 147.90625 193.84375 148.089844 C 193.382812 149.964844 192.992188 151.859375 192.679688 153.761719 C 192.527344 154.691406 192.433594 155.628906 192.375 156.570312 C 192.359375 156.78125 192.347656 156.996094 192.335938 157.207031 C 192.332031 157.273438 192.316406 157.339844 192.292969 157.40625 C 192.257812 157.515625 192.1875 157.585938 192.070312 157.597656 C 191.945312 157.609375 191.855469 157.546875 191.800781 157.441406 C 191.742188 157.328125 191.726562 157.199219 191.710938 157.070312 C 191.636719 156.351562 191.714844 155.640625 191.796875 154.925781 C 192.015625 153.078125 192.386719 151.253906 192.859375 149.457031 C 193.226562 148.070312 193.605469 146.683594 194.226562 145.378906 C 194.855469 144.074219 195.667969 142.890625 196.589844 141.78125 C 197.300781 140.933594 198.066406 140.148438 198.886719 139.410156 C 199.191406 139.140625 199.367188 138.777344 199.640625 138.484375 C 200.28125 137.808594 201.007812 137.257812 201.878906 136.914062 C 202.097656 136.824219 202.328125 136.742188 202.570312 136.847656 C 203.371094 137.199219 203.832031 137.769531 203.777344 138.679688 Z M 203.777344 138.679688 " fill-opacity="1" fill-rule="nonzero"/><path fill="#877671" d="M 168.476562 151.367188 C 167.644531 148.585938 166.863281 145.789062 166.425781 142.910156 C 166.222656 141.5625 166.070312 140.207031 166.109375 138.839844 C 166.117188 138.542969 166.140625 138.25 165.996094 137.976562 C 165.972656 137.921875 165.980469 137.867188 165.988281 137.8125 C 166.035156 137.414062 166.070312 137.007812 166.113281 136.609375 C 166.203125 135.824219 166.292969 135.042969 166.386719 134.261719 C 166.488281 133.421875 166.597656 132.589844 166.703125 131.75 C 166.804688 130.914062 166.910156 130.078125 167.011719 129.242188 C 167.109375 128.449219 167.1875 127.660156 167.25 126.871094 C 167.308594 126.144531 167.347656 125.417969 167.375 124.691406 C 167.417969 123.625 167.359375 122.5625 167.203125 121.507812 C 167.171875 121.273438 167.085938 121.046875 166.859375 120.910156 C 166.832031 120.980469 166.800781 121.046875 166.777344 121.117188 C 166.605469 121.617188 166.5625 122.140625 166.484375 122.65625 C 166.34375 123.589844 166.195312 124.519531 166.105469 125.460938 C 166.039062 126.167969 165.960938 126.875 165.894531 127.582031 C 165.847656 128.078125 165.828125 128.578125 165.777344 129.078125 C 165.695312 129.855469 165.660156 130.632812 165.601562 131.414062 C 165.566406 131.921875 165.554688 132.4375 165.53125 132.949219 C 165.5 133.503906 165.519531 134.0625 165.496094 134.617188 C 165.472656 135.152344 165.488281 135.691406 165.515625 136.230469 C 165.546875 136.980469 165.535156 137.734375 165.59375 138.480469 C 165.628906 139.019531 165.660156 139.550781 165.703125 140.089844 C 165.753906 140.75 165.820312 141.410156 165.886719 142.070312 C 165.949219 142.710938 166.035156 143.351562 166.121094 143.992188 C 166.234375 144.804688 166.375 145.613281 166.527344 146.417969 C 166.753906 147.640625 167.027344 148.851562 167.308594 150.066406 C 167.628906 151.441406 168.03125 152.792969 168.46875 154.128906 C 168.800781 155.140625 169.15625 156.140625 169.523438 157.140625 C 169.808594 157.914062 170.101562 158.683594 170.386719 159.457031 C 170.652344 160.167969 170.949219 160.863281 171.136719 161.601562 C 171.175781 161.738281 171.171875 161.902344 171.289062 162.015625 C 171.292969 161.949219 171.300781 161.882812 171.300781 161.8125 C 171.300781 160.953125 171.117188 160.121094 170.863281 159.3125 C 170.046875 156.660156 169.265625 154.011719 168.476562 151.367188 Z M 168.476562 151.367188 " fill-opacity="1" fill-rule="nonzero"/><path fill="#877671" d="M 189.464844 110.878906 C 189.683594 110.804688 189.757812 110.625 189.769531 110.425781 C 189.785156 110.21875 189.617188 110.023438 189.390625 109.945312 C 189.398438 110 189.441406 110.027344 189.476562 110.0625 C 189.652344 110.226562 189.691406 110.425781 189.605469 110.644531 C 189.570312 110.726562 189.511719 110.800781 189.464844 110.878906 Z M 189.464844 110.878906 " fill-opacity="1" fill-rule="nonzero"/><g clip-path="url(#id5)"><path fill="#6c4e45" d="M 229.042969 128.78125 C 228.980469 128.714844 229.011719 128.628906 229.007812 128.558594 C 228.980469 127.859375 228.972656 127.160156 228.878906 126.464844 C 228.667969 124.941406 228.347656 123.441406 227.832031 121.988281 C 227.386719 120.726562 226.796875 119.542969 226.070312 118.425781 C 225.3125 117.253906 224.390625 116.21875 223.402344 115.234375 C 221.9375 113.789062 220.3125 112.585938 218.429688 111.734375 C 217.097656 111.132812 215.714844 110.707031 214.261719 110.535156 C 213.730469 110.472656 213.1875 110.429688 212.652344 110.421875 C 212.261719 110.417969 211.871094 110.484375 211.480469 110.523438 C 210.347656 110.644531 209.300781 111 208.359375 111.65625 C 207.851562 112.007812 207.449219 112.476562 207 112.886719 C 206.515625 113.335938 206.140625 113.855469 205.867188 114.453125 C 205.605469 115.035156 205.46875 115.601562 205.6875 116.238281 C 205.867188 116.75 206.167969 117.082031 206.667969 117.277344 C 207.03125 117.414062 207.40625 117.554688 207.664062 117.890625 C 207.765625 118.023438 207.910156 118.128906 208.023438 118.257812 C 208.246094 118.507812 208.53125 118.660156 208.828125 118.785156 C 209.210938 118.949219 209.613281 119.0625 210.019531 119.152344 C 210.125 119.175781 210.226562 119.195312 210.316406 119.28125 C 211.011719 120.003906 211.683594 120.753906 212.539062 121.304688 C 212.609375 121.347656 212.636719 121.402344 212.644531 121.484375 C 212.664062 121.757812 212.726562 122.027344 212.8125 122.292969 C 213.164062 123.402344 213.761719 124.382812 214.398438 125.339844 C 215.097656 126.394531 215.816406 127.441406 216.53125 128.488281 C 216.574219 128.554688 216.636719 128.613281 216.585938 128.714844 C 216.371094 129.15625 216.277344 129.628906 216.21875 130.109375 C 216.074219 131.285156 216.113281 132.460938 216.164062 133.632812 C 216.222656 134.949219 216.304688 136.273438 216.1875 137.597656 C 216.109375 138.527344 215.953125 139.441406 215.667969 140.332031 C 215.410156 141.125 215.042969 141.871094 214.613281 142.585938 C 214.195312 143.28125 213.613281 143.75 212.855469 144.011719 C 212.730469 144.058594 212.671875 144.042969 212.652344 143.894531 C 212.617188 143.679688 212.5625 143.464844 212.507812 143.25 C 212.042969 141.449219 211.246094 139.792969 210.316406 138.195312 C 209.773438 137.265625 209.105469 136.429688 208.441406 135.589844 C 206.730469 133.433594 204.929688 131.355469 203.113281 129.289062 C 201.035156 126.945312 199.066406 124.523438 197.054688 122.128906 C 196.957031 122.015625 196.933594 121.917969 196.988281 121.769531 C 197.34375 120.785156 197.660156 119.789062 197.984375 118.792969 C 198.300781 117.820312 198.613281 116.84375 198.933594 115.875 C 199.074219 115.449219 199.21875 115.027344 199.4375 114.621094 C 200.886719 111.933594 202.320312 109.234375 203.75 106.539062 C 204.175781 105.734375 204.59375 104.921875 204.996094 104.101562 C 205.242188 103.601562 205.121094 103.175781 204.671875 102.847656 C 204.484375 102.707031 204.269531 102.625 204.027344 102.609375 C 202.949219 102.542969 201.871094 102.53125 200.792969 102.511719 C 198.964844 102.472656 197.140625 102.441406 195.3125 102.410156 C 195.195312 102.40625 195.109375 102.371094 195.019531 102.289062 C 194.125 101.460938 193.183594 100.6875 192.183594 99.984375 C 190.984375 99.144531 189.761719 98.34375 188.40625 97.765625 C 186.722656 97.054688 184.980469 96.503906 183.1875 96.144531 C 183 96.109375 182.890625 96.023438 182.804688 95.851562 C 182.210938 94.597656 181.605469 93.34375 181.003906 92.09375 C 180.40625 90.859375 179.828125 89.613281 179.1875 88.402344 C 178.914062 87.886719 178.4375 87.765625 177.929688 88.050781 C 177.632812 88.214844 177.464844 88.476562 177.320312 88.765625 C 176.316406 90.796875 175.355469 92.847656 174.375 94.890625 C 173.820312 96.042969 173.320312 97.226562 172.699219 98.351562 C 172.648438 98.433594 172.605469 98.519531 172.53125 98.589844 C 172.074219 99.003906 171.648438 99.457031 171.226562 99.90625 C 170.117188 101.082031 169.074219 102.320312 168.152344 103.652344 C 167.414062 104.722656 166.78125 105.855469 166.230469 107.03125 C 165.734375 108.09375 165.339844 109.191406 165.117188 110.34375 C 164.902344 111.546875 164.839844 112.75 164.902344 113.96875 C 164.972656 115.40625 165.15625 116.820312 165.675781 118.171875 C 165.738281 118.335938 165.839844 118.492188 165.824219 118.679688 C 165.78125 119.199219 165.785156 119.730469 165.699219 120.25 C 165.316406 122.609375 164.9375 124.972656 164.742188 127.363281 C 164.582031 129.367188 164.40625 131.363281 164.347656 133.375 C 164.347656 133.621094 164.351562 133.863281 164.351562 134.109375 C 164.351562 134.378906 164.351562 134.644531 164.351562 134.914062 C 164.351562 134.957031 164.355469 135 164.316406 135.03125 C 164.316406 135.167969 164.316406 135.300781 164.316406 135.4375 C 164.398438 135.625 164.339844 135.816406 164.351562 136.007812 C 164.359375 136.125 164.351562 136.242188 164.351562 136.355469 C 164.351562 136.601562 164.347656 136.84375 164.347656 137.089844 C 164.476562 140.683594 164.871094 144.246094 165.621094 147.761719 C 166.058594 149.816406 166.542969 151.855469 167.207031 153.855469 C 167.695312 155.332031 168.222656 156.789062 168.757812 158.25 C 169.121094 159.242188 169.546875 160.214844 169.851562 161.230469 C 170.128906 162.148438 170.394531 163.074219 170.445312 164.042969 C 170.46875 164.554688 170.375 165.058594 170.246094 165.550781 C 170.097656 166.125 170.027344 166.691406 170.234375 167.265625 C 170.316406 167.488281 170.417969 167.6875 170.59375 167.855469 C 170.90625 168.148438 171.203125 168.457031 171.507812 168.761719 C 171.628906 168.886719 171.765625 168.96875 171.933594 168.992188 C 172.628906 169.105469 173.324219 169.160156 174.011719 168.960938 C 174.691406 168.761719 175.3125 168.464844 175.800781 167.933594 C 176.203125 167.496094 176.679688 167.128906 176.996094 166.617188 C 177.539062 165.730469 177.972656 164.804688 178.074219 163.757812 C 178.085938 163.632812 178.144531 163.585938 178.257812 163.546875 C 179.535156 163.097656 180.820312 162.664062 182.019531 162.039062 C 182.273438 161.90625 182.523438 161.75 182.769531 161.609375 C 182.835938 161.566406 182.902344 161.53125 182.972656 161.484375 C 183.207031 162.777344 183.265625 164.03125 182.855469 165.292969 C 182.636719 165.976562 182.511719 166.691406 182.332031 167.394531 C 182.183594 167.964844 181.996094 168.53125 181.964844 169.113281 C 181.9375 169.667969 182.039062 170.214844 182.445312 170.644531 C 182.714844 170.925781 183.015625 171.183594 183.273438 171.480469 C 183.589844 171.839844 183.988281 171.972656 184.441406 172.015625 C 184.488281 172.019531 184.539062 172.003906 184.578125 172.046875 C 184.761719 172.046875 184.945312 172.046875 185.128906 172.046875 C 185.152344 172.035156 185.171875 172.023438 185.191406 172.023438 C 185.933594 171.980469 186.566406 171.671875 187.160156 171.242188 C 187.703125 170.847656 188.1875 170.394531 188.648438 169.910156 C 188.730469 169.824219 188.777344 169.816406 188.863281 169.90625 C 189.097656 170.15625 189.34375 170.394531 189.589844 170.632812 C 189.683594 170.722656 189.757812 170.832031 189.875 170.890625 C 190.355469 171.125 190.855469 171.261719 191.398438 171.195312 C 192.988281 170.996094 194.46875 170.472656 195.835938 169.644531 C 196.808594 169.050781 197.71875 168.363281 198.574219 167.609375 C 199.882812 166.460938 201.074219 165.207031 202.246094 163.925781 C 203.6875 162.355469 205.054688 160.742188 205.996094 158.808594 C 206.035156 158.730469 206.097656 158.707031 206.167969 158.679688 C 206.894531 158.355469 207.601562 157.996094 208.257812 157.539062 C 208.824219 157.152344 209.261719 156.640625 209.746094 156.175781 C 210.894531 155.078125 211.703125 153.769531 212.214844 152.273438 C 212.257812 152.144531 212.320312 152.109375 212.445312 152.105469 C 213.058594 152.089844 213.671875 152.066406 214.277344 151.953125 C 215.226562 151.777344 216.136719 151.488281 217.023438 151.097656 C 217.917969 150.703125 218.78125 150.25 219.554688 149.652344 C 221.722656 147.988281 223.550781 146.011719 224.953125 143.65625 C 225.351562 142.988281 225.738281 142.316406 226.074219 141.617188 C 226.414062 140.917969 226.734375 140.210938 227 139.476562 C 227.324219 138.582031 227.660156 137.6875 227.917969 136.765625 C 228.34375 135.25 228.632812 133.707031 228.886719 132.152344 C 229.007812 131.402344 228.96875 130.636719 229.003906 129.875 C 229.007812 129.804688 228.976562 129.730469 229.039062 129.671875 C 229.042969 129.367188 229.042969 129.074219 229.042969 128.78125 Z M 227.78125 131.253906 C 227.78125 132.050781 227.597656 132.835938 227.449219 133.621094 C 227.394531 133.914062 227.351562 134.207031 227.300781 134.503906 C 227.207031 135.027344 227.054688 135.542969 226.929688 136.0625 C 226.609375 137.390625 226.140625 138.671875 225.640625 139.9375 C 225.136719 141.210938 224.523438 142.433594 223.804688 143.605469 C 223.277344 144.472656 222.703125 145.304688 222.066406 146.097656 C 221.476562 146.824219 220.820312 147.476562 220.085938 148.066406 C 219.234375 148.75 218.320312 149.316406 217.332031 149.773438 C 216.277344 150.265625 215.179688 150.644531 214.023438 150.804688 C 213.550781 150.871094 213.078125 150.910156 212.601562 150.914062 C 212.359375 150.917969 212.125 150.941406 211.886719 150.945312 C 211.816406 150.949219 211.769531 150.980469 211.722656 151.019531 C 211.5 151.210938 211.308594 151.410156 211.214844 151.714844 C 210.902344 152.78125 210.460938 153.792969 209.824219 154.710938 C 209.546875 155.105469 209.253906 155.496094 208.917969 155.835938 C 208.554688 156.203125 208.113281 156.484375 207.660156 156.746094 C 207.015625 157.117188 206.339844 157.410156 205.667969 157.71875 C 205.339844 157.871094 205.101562 158.140625 204.988281 158.5 C 204.976562 158.546875 204.976562 158.59375 204.929688 158.628906 C 204.914062 158.640625 204.894531 158.652344 204.875 158.667969 C 204.875 158.667969 204.878906 158.667969 204.878906 158.667969 C 204.660156 159.191406 204.347656 159.671875 204.058594 160.15625 C 203.128906 161.722656 201.867188 163.019531 200.664062 164.367188 C 199.625 165.539062 198.46875 166.585938 197.214844 167.527344 C 196.128906 168.335938 194.984375 169.039062 193.699219 169.480469 C 192.878906 169.757812 192.042969 169.988281 191.175781 170.039062 C 190.710938 170.0625 190.253906 169.925781 189.839844 169.691406 C 189.78125 169.660156 189.761719 169.605469 189.738281 169.546875 C 189.667969 169.328125 189.640625 169.105469 189.664062 168.875 C 189.675781 168.769531 189.710938 168.664062 189.691406 168.550781 C 189.570312 168.429688 189.445312 168.304688 189.320312 168.179688 C 189.234375 168.089844 189.152344 168.0625 189.0625 168.175781 C 189.042969 168.195312 189.011719 168.203125 188.988281 168.222656 C 188.65625 168.617188 188.351562 169.035156 187.988281 169.394531 C 187.671875 169.707031 187.304688 169.96875 186.933594 170.21875 C 186.363281 170.601562 185.734375 170.824219 185.042969 170.851562 C 184.625 170.871094 184.21875 170.828125 183.8125 170.703125 C 183.527344 170.613281 183.40625 170.40625 183.304688 170.152344 C 183.070312 169.546875 183.105469 168.945312 183.269531 168.335938 C 183.589844 167.125 183.847656 165.894531 184.179688 164.6875 C 184.363281 164.019531 184.371094 163.335938 184.308594 162.648438 C 184.25 162 184.15625 161.359375 184.058594 160.71875 C 184.039062 160.601562 184.019531 160.492188 183.941406 160.398438 C 183.824219 160.292969 183.707031 160.183594 183.59375 160.074219 C 183.515625 159.996094 183.453125 159.992188 183.355469 160.058594 C 182.769531 160.445312 182.167969 160.808594 181.53125 161.113281 C 180.800781 161.457031 180.042969 161.734375 179.285156 162.011719 C 178.753906 162.207031 178.207031 162.351562 177.695312 162.582031 C 177.289062 162.765625 176.921875 163.035156 176.921875 163.566406 C 176.921875 163.660156 176.890625 163.757812 176.875 163.855469 C 176.832031 164.417969 176.648438 164.941406 176.433594 165.457031 C 176.253906 165.886719 176.015625 166.285156 175.78125 166.691406 C 175.589844 167.015625 175.300781 167.21875 174.984375 167.398438 C 174.148438 167.871094 173.253906 168.011719 172.308594 167.882812 C 172.28125 167.878906 172.261719 167.875 172.234375 167.871094 C 171.589844 167.808594 171.542969 167.726562 171.359375 167.085938 C 171.242188 166.671875 171.242188 166.253906 171.367188 165.835938 C 171.71875 164.660156 171.664062 163.492188 171.324219 162.328125 C 171.296875 162.226562 171.300781 162.121094 171.285156 162.019531 C 171.167969 161.90625 171.171875 161.742188 171.136719 161.605469 C 170.945312 160.867188 170.648438 160.171875 170.382812 159.460938 C 170.097656 158.691406 169.804688 157.917969 169.519531 157.144531 C 169.152344 156.148438 168.796875 155.144531 168.464844 154.132812 C 168.027344 152.792969 167.625 151.441406 167.304688 150.070312 C 167.023438 148.859375 166.75 147.648438 166.523438 146.421875 C 166.371094 145.613281 166.230469 144.804688 166.117188 143.996094 C 166.03125 143.355469 165.945312 142.714844 165.882812 142.074219 C 165.816406 141.410156 165.753906 140.753906 165.699219 140.09375 C 165.65625 139.554688 165.625 139.023438 165.589844 138.484375 C 165.535156 137.738281 165.542969 136.984375 165.511719 136.234375 C 165.488281 135.691406 165.472656 135.15625 165.492188 134.621094 C 165.515625 134.066406 165.496094 133.507812 165.527344 132.953125 C 165.550781 132.441406 165.558594 131.925781 165.597656 131.414062 C 165.660156 130.636719 165.691406 129.859375 165.773438 129.082031 C 165.824219 128.585938 165.847656 128.085938 165.890625 127.585938 C 165.957031 126.878906 166.039062 126.171875 166.101562 125.460938 C 166.191406 124.523438 166.34375 123.59375 166.480469 122.660156 C 166.558594 122.144531 166.605469 121.617188 166.773438 121.121094 C 166.792969 121.050781 166.824219 120.984375 166.855469 120.914062 C 166.878906 120.839844 166.871094 120.753906 166.925781 120.6875 C 167.386719 121.066406 167.839844 121.457031 168.34375 121.777344 C 168.355469 121.769531 168.367188 121.757812 168.375 121.75 C 168.175781 121.453125 167.96875 121.15625 167.765625 120.859375 C 167.125 119.910156 166.785156 118.835938 166.492188 117.742188 C 166.039062 116.042969 165.859375 114.316406 165.894531 112.566406 C 165.914062 111.441406 166.070312 110.324219 166.382812 109.234375 C 166.582031 108.546875 166.835938 107.878906 167.125 107.226562 C 167.386719 106.640625 167.640625 106.054688 168.023438 105.53125 C 168.0625 105.257812 168.25 105.0625 168.375 104.835938 C 168.765625 104.132812 169.21875 103.460938 169.710938 102.824219 C 169.96875 102.488281 170.253906 102.175781 170.53125 101.863281 C 170.945312 101.402344 171.359375 100.949219 171.785156 100.503906 C 172.230469 100.039062 172.710938 99.613281 173.195312 99.191406 C 173.554688 98.878906 173.894531 98.546875 174.226562 98.203125 C 174.273438 98.160156 174.3125 98.105469 174.308594 98.042969 C 174.292969 97.851562 174.394531 97.699219 174.472656 97.542969 C 174.996094 96.425781 175.535156 95.3125 176.066406 94.199219 C 176.238281 93.835938 176.410156 93.46875 176.582031 93.101562 C 176.609375 93.046875 176.613281 92.96875 176.703125 92.957031 C 177.125 91.902344 177.644531 90.890625 178.140625 89.871094 C 178.207031 89.742188 178.273438 89.613281 178.339844 89.484375 C 178.429688 89.496094 178.433594 89.566406 178.457031 89.621094 C 178.992188 90.707031 179.527344 91.792969 180.054688 92.882812 C 180.511719 93.832031 180.957031 94.777344 181.40625 95.730469 C 181.59375 96.132812 181.769531 96.542969 181.945312 96.949219 C 182.003906 97.085938 182.089844 97.152344 182.234375 97.191406 C 182.875 97.375 183.527344 97.503906 184.171875 97.660156 C 185.398438 97.953125 186.597656 98.332031 187.757812 98.8125 C 188.550781 99.140625 189.292969 99.570312 190.015625 100.027344 C 190.972656 100.628906 191.894531 101.285156 192.792969 101.964844 C 193.050781 102.160156 193.285156 102.390625 193.523438 102.605469 C 193.851562 102.898438 194.167969 103.203125 194.492188 103.5 C 194.625 103.621094 194.792969 103.585938 194.941406 103.605469 C 195.40625 103.667969 195.867188 103.632812 196.335938 103.648438 C 197.273438 103.6875 198.214844 103.652344 199.152344 103.695312 C 199.800781 103.71875 200.453125 103.699219 201.097656 103.726562 C 201.234375 103.730469 201.378906 103.722656 201.5 103.800781 C 202.226562 103.695312 202.953125 103.800781 203.679688 103.796875 C 203.84375 103.796875 203.792969 103.867188 203.746094 103.949219 C 203.261719 104.882812 202.78125 105.816406 202.292969 106.746094 C 202.128906 107.066406 201.960938 107.386719 201.75 107.679688 C 201.769531 107.746094 201.734375 107.796875 201.710938 107.851562 C 201.367188 108.488281 201.023438 109.125 200.6875 109.761719 C 199.941406 111.15625 199.195312 112.554688 198.445312 113.945312 C 198.285156 114.238281 198.199219 114.558594 198.097656 114.871094 C 197.65625 116.199219 197.226562 117.527344 196.792969 118.859375 C 196.472656 119.839844 196.164062 120.824219 195.804688 121.796875 C 195.660156 122.191406 195.421875 122.546875 195.199219 122.902344 C 194.730469 123.660156 194.195312 124.355469 193.582031 125 C 192.949219 125.667969 192.257812 126.265625 191.460938 126.726562 C 191.414062 126.753906 191.375 126.777344 191.332031 126.804688 C 191.171875 126.917969 191.136719 127.050781 191.222656 127.195312 C 191.300781 127.320312 191.449219 127.351562 191.613281 127.269531 C 191.902344 127.128906 192.171875 126.945312 192.433594 126.753906 C 192.964844 126.367188 193.457031 125.941406 193.910156 125.460938 C 194.691406 124.640625 195.367188 123.738281 195.925781 122.75 C 196.113281 122.425781 196.117188 122.417969 196.347656 122.691406 C 196.886719 123.332031 197.417969 123.972656 197.953125 124.617188 C 198.460938 125.226562 198.96875 125.835938 199.480469 126.445312 C 200.089844 127.164062 200.707031 127.882812 201.324219 128.601562 C 201.792969 129.144531 202.277344 129.679688 202.746094 130.226562 C 203.238281 130.792969 203.722656 131.363281 204.210938 131.9375 C 204.65625 132.457031 205.105469 132.972656 205.542969 133.496094 C 206.101562 134.164062 206.65625 134.835938 207.199219 135.519531 C 207.765625 136.234375 208.332031 136.945312 208.824219 137.710938 C 209.488281 138.746094 210.050781 139.839844 210.53125 140.96875 C 210.902344 141.835938 211.207031 142.726562 211.40625 143.648438 C 211.574219 144.429688 211.738281 145.203125 211.738281 146.011719 C 211.738281 146.425781 211.78125 146.84375 211.757812 147.257812 C 211.722656 147.859375 211.730469 148.464844 211.65625 149.066406 C 211.652344 149.140625 211.65625 149.210938 211.65625 149.285156 C 211.65625 149.492188 211.75 149.617188 211.910156 149.617188 C 212.074219 149.621094 212.195312 149.5 212.203125 149.304688 C 212.210938 149.164062 212.234375 149.023438 212.234375 148.886719 C 212.238281 148.507812 212.273438 148.128906 212.285156 147.75 C 212.304688 147.28125 212.324219 146.808594 212.308594 146.339844 C 212.300781 146.058594 212.28125 145.78125 212.277344 145.496094 C 212.277344 145.390625 212.296875 145.335938 212.417969 145.304688 C 213.164062 145.144531 213.773438 144.75 214.335938 144.246094 C 215.171875 143.496094 215.835938 142.628906 216.316406 141.617188 C 216.488281 141.261719 216.667969 140.902344 216.757812 140.515625 C 216.78125 140.417969 216.804688 140.324219 216.863281 140.242188 C 216.878906 140.222656 216.878906 140.191406 216.910156 140.207031 C 216.902344 140.03125 216.96875 139.875 217.011719 139.71875 C 217.246094 138.835938 217.34375 137.9375 217.394531 137.03125 C 217.480469 135.542969 217.320312 134.0625 217.300781 132.578125 C 217.28125 131.480469 217.277344 130.382812 217.546875 129.308594 C 217.585938 129.144531 217.628906 128.972656 217.710938 128.824219 C 217.800781 128.667969 217.761719 128.5625 217.671875 128.433594 C 216.964844 127.402344 216.257812 126.375 215.566406 125.335938 C 215.019531 124.507812 214.5 123.664062 214.144531 122.734375 C 213.964844 122.261719 213.828125 121.78125 213.796875 121.273438 C 213.796875 121.1875 213.765625 121.125 213.710938 121.0625 C 213.496094 120.816406 213.257812 120.601562 212.980469 120.425781 C 212.550781 120.144531 212.125 119.855469 211.730469 119.523438 C 211.488281 119.320312 211.335938 119.054688 211.179688 118.777344 C 210.992188 118.4375 210.757812 118.136719 210.324219 118.046875 C 209.636719 117.902344 208.949219 117.734375 208.335938 117.355469 C 208.246094 117.296875 208.175781 117.230469 208.125 117.136719 C 207.914062 116.746094 207.640625 116.441406 207.1875 116.328125 C 206.863281 116.246094 206.710938 115.96875 206.734375 115.613281 C 206.769531 115.003906 207.027344 114.472656 207.316406 113.949219 C 207.335938 113.921875 207.367188 113.894531 207.390625 113.867188 C 207.550781 113.496094 207.828125 113.226562 208.148438 113 C 208.640625 112.640625 209.15625 112.328125 209.726562 112.113281 C 210.242188 111.917969 210.777344 111.808594 211.324219 111.730469 C 211.753906 111.667969 212.183594 111.667969 212.613281 111.597656 C 212.703125 111.582031 212.792969 111.621094 212.886719 111.625 C 213.421875 111.65625 213.960938 111.65625 214.488281 111.738281 C 215.117188 111.832031 215.738281 111.960938 216.347656 112.132812 C 217.382812 112.433594 218.378906 112.839844 219.332031 113.347656 C 220.210938 113.8125 221.035156 114.367188 221.820312 114.988281 C 222.21875 115.304688 222.601562 115.636719 222.976562 115.976562 C 223.25 116.230469 223.480469 116.539062 223.726562 116.828125 C 224.191406 117.378906 224.609375 117.964844 224.996094 118.574219 C 225.675781 119.632812 226.226562 120.75 226.648438 121.9375 C 226.910156 122.671875 227.136719 123.414062 227.292969 124.167969 C 227.472656 125.03125 227.675781 125.894531 227.738281 126.773438 C 227.785156 127.457031 227.804688 128.136719 227.847656 128.820312 C 227.890625 129.632812 227.785156 130.441406 227.78125 131.253906 Z M 227.78125 131.253906 " fill-opacity="1" fill-rule="nonzero"/></g><path fill="#6c4e45" d="M 216.90625 140.207031 C 216.902344 140.207031 216.902344 140.210938 216.902344 140.210938 Z M 216.90625 140.207031 " fill-opacity="1" fill-rule="nonzero"/><path fill="#6c4e45" d="M 179.632812 111.160156 C 179.121094 110.480469 178.40625 110.085938 177.632812 109.78125 C 177.054688 109.554688 176.464844 109.484375 175.851562 109.566406 C 175.601562 109.597656 175.382812 109.675781 175.253906 109.90625 C 175.144531 110.105469 175.046875 110.304688 174.988281 110.527344 C 174.824219 111.175781 174.820312 111.824219 174.914062 112.480469 C 175 113.050781 175.175781 113.585938 175.570312 114.027344 C 175.632812 114.101562 175.59375 114.148438 175.5625 114.207031 C 175.425781 114.488281 175.289062 114.765625 175.15625 115.046875 C 175.121094 115.113281 175.085938 115.148438 175.011719 115.167969 C 174.554688 115.289062 174.09375 115.332031 173.628906 115.253906 C 173.21875 115.1875 172.851562 115.042969 172.714844 114.605469 C 172.613281 114.273438 172.617188 113.941406 172.765625 113.617188 C 172.835938 113.460938 172.796875 113.332031 172.644531 113.246094 C 172.5 113.15625 172.378906 113.203125 172.273438 113.328125 C 172.214844 113.398438 172.175781 113.484375 172.140625 113.566406 C 172.039062 113.800781 172.101562 114.039062 172.109375 114.269531 C 172.128906 114.945312 172.445312 115.429688 173.085938 115.675781 C 173.234375 115.730469 173.3125 115.828125 173.359375 115.96875 C 173.652344 116.835938 174.527344 117.460938 175.441406 117.464844 C 175.730469 117.464844 176.015625 117.53125 176.261719 117.691406 C 176.757812 118.007812 177.304688 118.128906 177.902344 118.132812 C 177.992188 118.128906 178.09375 118.125 178.195312 118.113281 C 178.464844 118.082031 178.726562 118.023438 178.957031 117.875 C 179.105469 117.777344 179.140625 117.648438 179.0625 117.515625 C 178.984375 117.375 178.863281 117.347656 178.703125 117.441406 C 178.601562 117.5 178.5 117.558594 178.386719 117.585938 C 177.71875 117.71875 177.070312 117.664062 176.476562 117.304688 C 176.058594 117.050781 175.761719 116.710938 175.628906 116.222656 C 175.554688 115.941406 175.476562 115.683594 175.597656 115.402344 C 175.734375 115.0625 175.902344 114.734375 176.070312 114.410156 C 176.101562 114.355469 176.125 114.304688 176.203125 114.308594 C 176.707031 114.332031 177.183594 114.191406 177.660156 114.042969 C 178.324219 113.828125 178.945312 113.527344 179.480469 113.074219 C 179.820312 112.789062 180.046875 112.433594 180.011719 111.960938 C 179.996094 111.644531 179.816406 111.398438 179.632812 111.160156 Z M 179.632812 111.160156 " fill-opacity="1" fill-rule="nonzero"/><path fill="#6c4e45" d="M 189.390625 109.945312 C 189.289062 109.886719 189.175781 109.863281 189.058594 109.863281 C 188.25 109.875 187.441406 109.800781 186.632812 109.777344 C 186.242188 109.769531 185.851562 109.730469 185.460938 109.71875 C 185.132812 109.710938 184.796875 109.660156 184.476562 109.761719 C 184.144531 109.863281 183.910156 110.148438 183.964844 110.453125 C 184.011719 110.738281 184.097656 111.007812 184.339844 111.222656 C 185.351562 112.125 186.34375 113.042969 187.347656 113.949219 C 187.414062 114.011719 187.492188 114.066406 187.570312 114.109375 C 187.78125 114.214844 188.023438 114.175781 188.179688 114.015625 C 188.347656 113.84375 188.382812 113.613281 188.265625 113.394531 C 188.191406 113.253906 188.097656 113.125 187.984375 113.011719 C 187.3125 112.359375 186.644531 111.699219 185.996094 111.019531 C 185.96875 110.988281 185.910156 110.964844 185.933594 110.902344 C 185.953125 110.898438 185.972656 110.894531 185.988281 110.894531 C 187.03125 110.917969 188.070312 110.9375 189.113281 110.957031 C 189.238281 110.960938 189.355469 110.949219 189.460938 110.875 C 189.507812 110.796875 189.566406 110.722656 189.597656 110.640625 C 189.683594 110.421875 189.644531 110.222656 189.46875 110.058594 C 189.441406 110.027344 189.398438 109.996094 189.390625 109.945312 Z M 189.390625 109.945312 " fill-opacity="1" fill-rule="nonzero"/><path fill="#6c4e45" d="M 174.453125 107.664062 C 174.757812 107.667969 175.011719 107.53125 175.230469 107.335938 C 175.949219 106.707031 176.367188 105.90625 176.570312 104.988281 C 176.65625 104.601562 176.582031 104.246094 176.277344 103.960938 C 176 103.707031 175.898438 103.386719 175.894531 103.019531 C 175.894531 102.953125 175.949219 102.851562 175.832031 102.820312 C 175.722656 102.785156 175.640625 102.84375 175.585938 102.933594 C 175.476562 103.109375 175.386719 103.3125 175.429688 103.507812 C 175.488281 103.78125 175.359375 103.886719 175.15625 104.027344 C 174.542969 104.441406 174.109375 105.015625 173.757812 105.65625 C 173.59375 105.953125 173.476562 106.265625 173.46875 106.554688 C 173.464844 107.191406 173.894531 107.652344 174.453125 107.664062 Z M 174.453125 107.664062 " fill-opacity="1" fill-rule="nonzero"/><path fill="#6c4e45" d="M 168.394531 121.800781 C 168.394531 121.804688 168.390625 121.804688 168.394531 121.800781 C 168.394531 121.804688 168.398438 121.800781 168.398438 121.800781 C 168.398438 121.800781 168.398438 121.800781 168.394531 121.800781 C 168.425781 121.777344 168.398438 121.757812 168.386719 121.742188 C 168.375 121.75 168.367188 121.761719 168.355469 121.769531 C 168.367188 121.777344 168.378906 121.789062 168.394531 121.800781 Z M 168.394531 121.800781 " fill-opacity="1" fill-rule="nonzero"/><path fill="#6c4e45" d="M 168.417969 121.796875 C 168.410156 121.796875 168.402344 121.800781 168.398438 121.804688 C 168.40625 121.808594 168.410156 121.8125 168.417969 121.820312 C 168.417969 121.808594 168.417969 121.804688 168.417969 121.796875 Z M 168.417969 121.796875 " fill-opacity="1" fill-rule="nonzero"/></svg>