<svg xmlns="http://www.w3.org/2000/svg" xmlns:xlink="http://www.w3.org/1999/xlink" width="500" zoomAndPan="magnify" viewBox="0 0 375 262.499992" height="350" preserveAspectRatio="xMidYMid meet" version="1.0"><defs><clipPath id="id1"><path d="M 73.863281 79 L 301.429688 79 L 301.429688 213.558594 L 73.863281 213.558594 Z M 73.863281 79 " clip-rule="nonzero"/></clipPath><clipPath id="id2"><path d="M 101 63.09375 L 275 63.09375 L 275 128 L 101 128 Z M 101 63.09375 " clip-rule="nonzero"/></clipPath><clipPath id="id3"><path d="M 101 63.09375 L 275 63.09375 L 275 106 L 101 106 Z M 101 63.09375 " clip-rule="nonzero"/></clipPath></defs><g clip-path="url(#id1)"><path fill="#76cac9" d="M 294.109375 125.480469 C 290.136719 112.894531 277.761719 91.164062 268.847656 85.089844 C 249.691406 72.03125 225.765625 84.777344 187.648438 84.777344 C 148.609375 84.777344 124.3125 72.828125 105.40625 86.414062 C 96.9375 92.503906 84.316406 114.851562 80.824219 126.808594 C 76.726562 137.011719 73.859375 146.617188 73.859375 151.535156 C 73.859375 185.8125 124.804688 213.597656 187.648438 213.597656 C 250.492188 213.597656 301.4375 185.8125 301.4375 151.535156 C 301.4375 146.3125 298.433594 136.164062 294.109375 125.480469 " fill-opacity="1" fill-rule="nonzero"/></g><path fill="#83cec8" d="M 274.089844 102.496094 C 274.089844 120.242188 235.390625 134.625 187.648438 134.625 C 139.902344 134.625 101.203125 120.242188 101.203125 102.496094 C 101.203125 84.75 139.902344 70.363281 187.648438 70.363281 C 235.390625 70.363281 274.089844 84.75 274.089844 102.496094 " fill-opacity="1" fill-rule="nonzero"/><g clip-path="url(#id2)"><path fill="#569292" d="M 274.089844 95.253906 C 274.089844 113 235.390625 127.386719 187.648438 127.386719 C 139.902344 127.386719 101.203125 113 101.203125 95.253906 C 101.203125 77.511719 139.902344 63.125 187.648438 63.125 C 235.390625 63.125 274.089844 77.511719 274.089844 95.253906 " fill-opacity="1" fill-rule="nonzero"/></g><g clip-path="url(#id3)"><path fill="#4f8686" d="M 184.703125 80.546875 C 226.199219 80.546875 260.855469 91.414062 269.222656 105.910156 C 272.371094 102.574219 274.089844 98.992188 274.089844 95.253906 C 274.089844 77.511719 235.390625 63.125 187.648438 63.125 C 139.902344 63.125 101.203125 77.511719 101.203125 95.253906 C 101.203125 97.578125 101.871094 99.839844 103.132812 102.027344 C 114.953125 89.515625 147.007812 80.546875 184.703125 80.546875 " fill-opacity="1" fill-rule="nonzero"/></g><path fill="#f2f2f0" d="M 205.410156 180.5 L 205.441406 180.476562 C 205.441406 180.476562 202.839844 179.101562 198.484375 175.378906 C 195.253906 172.609375 194.355469 169.261719 194.355469 169.261719 L 194.324219 169.304688 C 193.03125 166.230469 189.992188 164.074219 186.453125 164.074219 C 182.5625 164.074219 179.28125 166.683594 178.257812 170.25 C 177.75 171.449219 176.632812 173.539062 174.484375 175.378906 C 170.132812 179.101562 167.527344 180.476562 167.527344 180.476562 L 167.535156 180.484375 C 164.730469 181.882812 162.792969 184.773438 162.792969 188.121094 C 162.792969 192.832031 166.617188 196.65625 171.332031 196.65625 C 171.980469 196.65625 172.613281 196.574219 173.222656 196.4375 L 173.207031 196.515625 C 173.207031 196.515625 177.648438 194.804688 186.453125 194.804688 C 192.679688 194.804688 196.769531 195.640625 198.636719 196.125 C 199.019531 196.261719 199.40625 196.382812 199.8125 196.46875 L 199.816406 196.472656 C 200.386719 196.59375 200.972656 196.65625 201.578125 196.65625 C 206.289062 196.65625 210.113281 192.832031 210.113281 188.121094 C 210.113281 184.789062 208.195312 181.90625 205.410156 180.5 " fill-opacity="1" fill-rule="nonzero"/><path fill="#f2f2f0" d="M 170.390625 163.828125 C 172.949219 168.378906 172.03125 173.742188 168.34375 175.824219 C 164.652344 177.898438 159.589844 175.894531 157.027344 171.34375 C 154.46875 166.796875 155.386719 161.429688 159.078125 159.351562 C 162.765625 157.277344 167.832031 159.28125 170.390625 163.828125 " fill-opacity="1" fill-rule="nonzero"/><path fill="#f2f2f0" d="M 188.179688 153.261719 C 189.105469 158.015625 186.820312 162.460938 183.074219 163.1875 C 179.324219 163.921875 175.53125 160.667969 174.601562 155.914062 C 173.675781 151.164062 175.960938 146.71875 179.710938 145.988281 C 183.457031 145.253906 187.25 148.511719 188.179688 153.261719 " fill-opacity="1" fill-rule="nonzero"/><path fill="#f2f2f0" d="M 207.308594 161.921875 C 205.023438 165.988281 200.46875 167.773438 197.140625 165.902344 C 193.808594 164.03125 192.960938 159.21875 195.25 155.148438 C 197.535156 151.078125 202.089844 149.296875 205.417969 151.164062 C 208.746094 153.03125 209.59375 157.851562 207.308594 161.921875 " fill-opacity="1" fill-rule="nonzero"/><path fill="#f2f2f0" d="M 213.976562 179.308594 C 210.105469 180.261719 206.335938 178.46875 205.558594 175.304688 C 204.777344 172.132812 207.285156 168.796875 211.152344 167.84375 C 215.023438 166.890625 218.796875 168.6875 219.574219 171.851562 C 220.351562 175.015625 217.84375 178.355469 213.976562 179.308594 " fill-opacity="1" fill-rule="nonzero"/><path fill="#f2f2f0" d="M 205.410156 180.5 L 205.441406 180.476562 C 205.441406 180.476562 202.839844 179.101562 198.484375 175.378906 C 195.253906 172.609375 194.355469 169.261719 194.355469 169.261719 L 194.324219 169.304688 C 193.03125 166.230469 189.992188 164.074219 186.453125 164.074219 C 182.5625 164.074219 179.28125 166.683594 178.257812 170.25 C 177.75 171.449219 176.632812 173.539062 174.484375 175.378906 C 170.132812 179.101562 167.527344 180.476562 167.527344 180.476562 L 167.535156 180.484375 C 164.730469 181.882812 162.792969 184.773438 162.792969 188.121094 C 162.792969 192.832031 166.617188 196.65625 171.332031 196.65625 C 171.980469 196.65625 172.613281 196.574219 173.222656 196.4375 L 173.207031 196.515625 C 173.207031 196.515625 177.648438 194.804688 186.453125 194.804688 C 192.679688 194.804688 196.769531 195.640625 198.636719 196.125 C 199.019531 196.261719 199.40625 196.382812 199.8125 196.46875 L 199.816406 196.472656 C 200.386719 196.59375 200.972656 196.65625 201.578125 196.65625 C 206.289062 196.65625 210.113281 192.832031 210.113281 188.121094 C 210.113281 184.789062 208.195312 181.90625 205.410156 180.5 " fill-opacity="1" fill-rule="nonzero"/><path fill="#f2f2f0" d="M 170.390625 163.828125 C 172.949219 168.378906 172.03125 173.742188 168.34375 175.824219 C 164.652344 177.898438 159.589844 175.894531 157.027344 171.34375 C 154.46875 166.796875 155.386719 161.429688 159.078125 159.351562 C 162.765625 157.277344 167.832031 159.28125 170.390625 163.828125 " fill-opacity="1" fill-rule="nonzero"/><path fill="#f2f2f0" d="M 188.179688 153.261719 C 189.105469 158.015625 186.820312 162.460938 183.074219 163.1875 C 179.324219 163.921875 175.53125 160.667969 174.601562 155.914062 C 173.675781 151.164062 175.960938 146.71875 179.710938 145.988281 C 183.457031 145.253906 187.25 148.511719 188.179688 153.261719 " fill-opacity="1" fill-rule="nonzero"/><path fill="#f2f2f0" d="M 207.308594 161.921875 C 205.023438 165.988281 200.46875 167.773438 197.140625 165.902344 C 193.808594 164.03125 192.960938 159.21875 195.25 155.148438 C 197.535156 151.078125 202.089844 149.296875 205.417969 151.164062 C 208.746094 153.03125 209.59375 157.851562 207.308594 161.921875 " fill-opacity="1" fill-rule="nonzero"/><path fill="#f2f2f0" d="M 213.976562 179.308594 C 210.105469 180.261719 206.335938 178.46875 205.558594 175.304688 C 204.777344 172.132812 207.285156 168.796875 211.152344 167.84375 C 215.023438 166.890625 218.796875 168.6875 219.574219 171.851562 C 220.351562 175.015625 217.84375 178.355469 213.976562 179.308594 " fill-opacity="1" fill-rule="nonzero"/></svg>